<?xml version="1.0" encoding="utf-8"?>
<!-- Generator: Adobe Illustrator 23.1.0, SVG Export Plug-In . SVG Version: 6.00 Build 0)  -->
<svg version="1.1" id="레이어_1" xmlns="http://www.w3.org/2000/svg" xmlns:xlink="http://www.w3.org/1999/xlink" x="0px"
	 y="0px" viewBox="0 0 1315 86" style="enable-background:new 0 0 1315.7 86;" xml:space="preserve">
<style type="text/css">
	.st0{fill:#070001;}
</style>
<g>
	<path class="st0" d="M47.1,85.9c-6.9,0.6-13.8-1.4-20.7-3.1c-5.1-1.3-9.4-4.4-13.5-7.5c-1-0.7-1.9-1.5-2.9-2.2
		c-4.8-3.3-7.6-7.7-8.7-13.3c-1.2-5.5-1.6-11.1-1-16.6c0.4-3.2,1.5-6.4,2.2-9.6c1.7-7.2,4.6-14,8.4-20.4c1.9-3.3,4.3-6.3,7.3-8.8
		c1.1-0.9,2.1-1.8,3.1-2.8c2-1.9,5.5-2.3,7.7-0.7c2.2,1.5,3.9,3.3,4.8,5.7c0.9,2.4,1.6,4.8,2.6,7.1c1.3,2.7,2.6,5.4,4.5,7.8
		c0.9,1.2,2.9,1.5,4.4,2.2c0.4,0.2,0.9,0.1,1.4,0.2c3.6,0.3,5-0.7,6-4c0.1-0.4,0.2-0.7,0.4-1c2.9-5,5.8-10,8.7-15
		c1.7-2.8,4.2-4,7.5-3.3c0.9,0.2,1.8,0.5,2.5,1.1c4.6,3.6,8.5,7.8,11.1,13c2,4,4.4,7.9,6.2,12.1c1.5,3.5,2.7,7.3,3.4,11
		c1.1,6.1,1.7,12.2,0.9,18.4c-1,7.5-4.1,14.1-9.9,19.4c-1.2,1.1-2.6,2.2-4.1,2.8c-4.5,1.9-8.9,4-13.7,5.3
		C59.8,85.2,53.7,86.1,47.1,85.9z M17.1,19.7c0,0.4,0,0.8,0,1.2c0.2,2.3,1.1,3.1,3.4,3.3c1.3,0.1,2.7,0.1,4.1-0.1
		c3.3-0.6,6.4-2.5,4.3-7.1c-0.6-1.3-0.7-2.7-1.2-4c-0.4-0.9-0.8-1.9-1.5-2.6c-1.4-1.5-2.9-1.4-4.3,0.2c-0.6,0.8-1.3,1.6-1.8,2.4
		C18.8,15.1,16.8,16.9,17.1,19.7z M67.7,22c1.3-0.1,3.2-0.3,5.1-0.6c2.1-0.4,3.1-1.6,2.7-3.6c-0.4-1.9-0.9-3.7-1.6-5.5
		c-0.3-0.9-0.8-1.7-1.4-2.4c-2-2.4-5-2.2-6.2,0.6c-1,2.4-1.8,4.9-2.4,7.5C63,20.7,64.2,22,67.7,22z M39.6,43.4
		c-0.1-0.8-0.1-1.4-0.2-2c-0.7-4.3-4.2-6-7.7-7.7c-0.2-0.1-0.4-0.1-0.6,0c-1.7,0.5-3.4,0.9-5.1,1.4c-0.6,0.2-0.8,0.6-0.6,1.2
		c0.5,1.8,1.8,3.2,3.3,4.2c2.6,1.9,5.4,3.6,8,5.4c0.2,0.1,0.3,0.3,0.5,0.3c1.1,0.6,1.7,0.4,2-0.8C39.5,44.8,39.5,44,39.6,43.4z
		 M77.9,44.6c0.9-4.7-1.8-8.6-7.4-10.9c-1.6-0.7-6.7,1.2-8.1,3c3,2.9,6.6,5,10.1,7.1C72.8,44,73,44,73.3,44
		C74.8,44.2,76.3,44.4,77.9,44.6z M34.6,51.9c-1.2-1.5-2.2-3-3.5-4.1c-2.8-2.2-5.7-4.3-8.6-6.4c-1-0.7-2-0.3-2.2,0.9
		c-0.1,1.1-0.2,2.2-0.1,3.3c0.4,3.2,2.1,5.6,5.2,7C28.4,54,31.4,53.7,34.6,51.9z M58.8,43.3c-0.5,4.2,1.6,7.9,5.3,9.5
		c3.2,1.4,7.8,0.7,9.7-1.5c-1.5-1.3-3-2.6-4.6-3.8c-0.9-0.7-1.9-1.3-3-1.9C63.9,44.3,61.7,42.8,58.8,43.3z"/>
</g>
<g>
	<path class="st0" d="M1268.8,85.9c-6.9,0.6-13.8-1.4-20.7-3.1c-5.1-1.3-9.4-4.4-13.5-7.5c-1-0.7-1.9-1.5-2.9-2.2
		c-4.8-3.3-7.6-7.7-8.7-13.3c-1.2-5.5-1.6-11.1-1-16.6c0.4-3.2,1.5-6.4,2.2-9.6c1.7-7.2,4.6-14,8.4-20.4c1.9-3.3,4.3-6.3,7.3-8.8
		c1.1-0.9,2.1-1.8,3.1-2.8c2-1.9,5.5-2.3,7.7-0.7c2.2,1.5,3.9,3.3,4.8,5.7c0.9,2.4,1.6,4.8,2.6,7.1c1.3,2.7,2.6,5.4,4.5,7.8
		c0.9,1.2,2.9,1.5,4.4,2.2c0.4,0.2,0.9,0.1,1.4,0.2c3.6,0.3,5-0.7,6-4c0.1-0.4,0.2-0.7,0.4-1c2.9-5,5.8-10,8.7-15
		c1.7-2.8,4.2-4,7.5-3.3c0.9,0.2,1.8,0.5,2.5,1.1c4.6,3.6,8.5,7.8,11.1,13c2,4,4.4,7.9,6.2,12.1c1.5,3.5,2.7,7.3,3.4,11
		c1.1,6.1,1.7,12.2,0.9,18.4c-1,7.5-4.1,14.1-9.9,19.4c-1.2,1.1-2.6,2.2-4.1,2.8c-4.5,1.9-8.9,4-13.7,5.3
		C1281.6,85.2,1275.4,86.1,1268.8,85.9z M1238.8,19.7c0,0.4,0,0.8,0,1.2c0.2,2.3,1.1,3.1,3.4,3.3c1.3,0.1,2.7,0.1,4.1-0.1
		c3.3-0.6,6.4-2.5,4.3-7.1c-0.6-1.3-0.7-2.7-1.2-4c-0.4-0.9-0.8-1.9-1.5-2.6c-1.4-1.5-2.9-1.4-4.3,0.2c-0.6,0.8-1.3,1.6-1.8,2.4
		C1240.5,15.1,1238.5,16.9,1238.8,19.7z M1289.4,22c1.3-0.1,3.2-0.3,5.1-0.6c2.1-0.4,3.1-1.6,2.7-3.6c-0.4-1.9-0.9-3.7-1.6-5.5
		c-0.3-0.9-0.8-1.7-1.4-2.4c-2-2.4-5-2.2-6.2,0.6c-1,2.4-1.8,4.9-2.4,7.5C1284.8,20.7,1285.9,22,1289.4,22z M1261.3,43.4
		c-0.1-0.8-0.1-1.4-0.2-2c-0.7-4.3-4.2-6-7.7-7.7c-0.2-0.1-0.4-0.1-0.6,0c-1.7,0.5-3.4,0.9-5.1,1.4c-0.6,0.2-0.8,0.6-0.6,1.2
		c0.5,1.8,1.8,3.2,3.3,4.2c2.6,1.9,5.4,3.6,8,5.4c0.2,0.1,0.3,0.3,0.5,0.3c1.1,0.6,1.7,0.4,2-0.8C1261.2,44.8,1261.3,44,1261.3,43.4
		z M1299.7,44.6c0.9-4.7-1.8-8.6-7.4-10.9c-1.6-0.7-6.7,1.2-8.1,3c3,2.9,6.6,5,10.1,7.1c0.2,0.1,0.5,0.1,0.7,0.2
		C1296.6,44.2,1298.1,44.4,1299.7,44.6z M1256.3,51.9c-1.2-1.5-2.2-3-3.5-4.1c-2.8-2.2-5.7-4.3-8.6-6.4c-1-0.7-2-0.3-2.2,0.9
		c-0.2,1.1-0.3,2.2-0.1,3.3c0.4,3.2,2.1,5.6,5.2,7C1250.2,54,1253.2,53.7,1256.3,51.9z M1280.5,43.3c-0.5,4.2,1.6,7.9,5.3,9.5
		c3.2,1.4,7.8,0.7,9.7-1.5c-1.5-1.3-3-2.6-4.6-3.8c-0.9-0.7-1.9-1.3-3-1.9C1285.7,44.3,1283.4,42.8,1280.5,43.3z"/>
</g>
<g>
	<g>
		<path class="st0" d="M141.1,85.9c-6.9,0.6-13.8-1.4-20.7-3.1c-5.1-1.3-9.4-4.4-13.5-7.5c-1-0.7-1.9-1.5-2.9-2.2
			c-4.8-3.3-7.6-7.7-8.7-13.3c-1.2-5.5-1.6-11.1-1-16.6c0.4-3.2,1.5-6.4,2.2-9.6c1.7-7.2,4.6-14,8.4-20.4c1.9-3.3,4.3-6.3,7.3-8.8
			c1.1-0.9,2.1-1.8,3.1-2.8c2-1.9,5.5-2.3,7.7-0.7c2.2,1.5,3.9,3.3,4.8,5.7c0.9,2.4,1.6,4.8,2.6,7.1c1.3,2.7,2.6,5.4,4.5,7.8
			c0.9,1.2,2.9,1.5,4.4,2.2c0.4,0.2,0.9,0.1,1.4,0.2c3.6,0.3,5-0.7,6-4c0.1-0.4,0.2-0.7,0.4-1c2.9-5,5.8-10,8.7-15
			c1.7-2.8,4.2-4,7.5-3.3c0.9,0.2,1.8,0.5,2.5,1.1c4.6,3.6,8.5,7.8,11.1,13c2,4,4.4,7.9,6.2,12.1c1.5,3.5,2.7,7.3,3.4,11
			c1.1,6.1,1.7,12.2,0.9,18.4c-1,7.5-4.1,14.1-9.9,19.4c-1.2,1.1-2.6,2.2-4.1,2.8c-4.5,1.9-8.9,4-13.7,5.3
			C153.8,85.2,147.7,86.1,141.1,85.9z M111,19.7c0,0.4,0,0.8,0,1.2c0.2,2.3,1.1,3.1,3.4,3.3c1.3,0.1,2.7,0.1,4.1-0.1
			c3.3-0.6,6.4-2.5,4.3-7.1c-0.6-1.3-0.7-2.7-1.2-4c-0.4-0.9-0.8-1.9-1.5-2.6c-1.4-1.5-2.9-1.4-4.3,0.2c-0.6,0.8-1.3,1.6-1.8,2.4
			C112.7,15.1,110.8,16.9,111,19.7z M161.7,22c1.3-0.1,3.2-0.3,5.1-0.6c2.1-0.4,3.1-1.6,2.7-3.6c-0.4-1.9-0.9-3.7-1.6-5.5
			c-0.3-0.9-0.8-1.7-1.4-2.4c-2-2.4-5-2.2-6.2,0.6c-1,2.4-1.8,4.9-2.4,7.5C157,20.7,158.2,22,161.7,22z M133.6,43.4
			c-0.1-0.8-0.1-1.4-0.2-2c-0.7-4.3-4.2-6-7.7-7.7c-0.2-0.1-0.4-0.1-0.6,0c-1.7,0.5-3.4,0.9-5.1,1.4c-0.6,0.2-0.8,0.6-0.6,1.2
			c0.5,1.8,1.8,3.2,3.3,4.2c2.6,1.9,5.4,3.6,8,5.4c0.2,0.1,0.3,0.3,0.5,0.3c1.1,0.6,1.7,0.4,2-0.8C133.4,44.8,133.5,44,133.6,43.4z
			 M171.9,44.6c0.9-4.7-1.8-8.6-7.4-10.9c-1.6-0.7-6.7,1.2-8.1,3c3,2.9,6.6,5,10.1,7.1c0.2,0.1,0.5,0.1,0.7,0.2
			C168.8,44.2,170.3,44.4,171.9,44.6z M128.6,51.9c-1.2-1.5-2.2-3-3.5-4.1c-2.8-2.2-5.7-4.3-8.6-6.4c-1-0.7-2-0.3-2.2,0.9
			c-0.1,1.1-0.2,2.2-0.1,3.3c0.4,3.2,2.1,5.6,5.2,7C122.4,54,125.4,53.7,128.6,51.9z M152.7,43.3c-0.5,4.2,1.6,7.9,5.3,9.5
			c3.2,1.4,7.8,0.7,9.7-1.5c-1.5-1.3-3-2.6-4.6-3.8c-0.9-0.7-1.9-1.3-3-1.9C157.9,44.3,155.7,42.8,152.7,43.3z"/>
	</g>
	<path class="st0" d="M110.4,43"/>
	<path class="st0" d="M113.3,37.4l21.3,0.3l41.1-0.3l-4-5.4c0,0-21-1.9-21.9-1.9c-0.8,0-24.7,1.1-25.7,1s-10.8,2.5-10.8,2.5
		L113.3,37.4L113.3,37.4z"/>
</g>
<g>
	<g>
		<path class="st0" d="M1174.8,85.9c-6.9,0.6-13.8-1.4-20.7-3.1c-5.1-1.3-9.4-4.4-13.5-7.5c-1-0.7-1.9-1.5-2.9-2.2
			c-4.8-3.3-7.6-7.7-8.7-13.3c-1.2-5.5-1.6-11.1-1-16.6c0.4-3.2,1.5-6.4,2.2-9.6c1.7-7.2,4.6-14,8.4-20.4c1.9-3.3,4.3-6.3,7.3-8.8
			c1.1-0.9,2.1-1.8,3.1-2.8c2-1.9,5.5-2.3,7.7-0.7c2.2,1.5,3.9,3.3,4.8,5.7c0.9,2.4,1.6,4.8,2.6,7.1c1.3,2.7,2.6,5.4,4.5,7.8
			c0.9,1.2,2.9,1.5,4.4,2.2c0.4,0.2,0.9,0.1,1.4,0.2c3.6,0.3,5-0.7,6-4c0.1-0.4,0.2-0.7,0.4-1c2.9-5,5.8-10,8.7-15
			c1.7-2.8,4.2-4,7.5-3.3c0.9,0.2,1.8,0.5,2.5,1.1c4.6,3.6,8.5,7.8,11.1,13c2,4,4.4,7.9,6.2,12.1c1.5,3.5,2.7,7.3,3.4,11
			c1.1,6.1,1.7,12.2,0.9,18.4c-1,7.5-4.1,14.1-9.9,19.4c-1.2,1.1-2.6,2.2-4.1,2.8c-4.5,1.9-8.9,4-13.7,5.3
			C1187.6,85.2,1181.5,86.1,1174.8,85.9z M1144.8,19.7c0,0.4,0,0.8,0,1.2c0.2,2.3,1.1,3.1,3.4,3.3c1.3,0.1,2.7,0.1,4.1-0.1
			c3.3-0.6,6.4-2.5,4.3-7.1c-0.6-1.3-0.7-2.7-1.2-4c-0.4-0.9-0.8-1.9-1.5-2.6c-1.4-1.5-2.9-1.4-4.3,0.2c-0.6,0.8-1.3,1.6-1.8,2.4
			C1146.5,15.1,1144.6,16.9,1144.8,19.7z M1195.5,22c1.3-0.1,3.2-0.3,5.1-0.6c2.1-0.4,3.1-1.6,2.7-3.6c-0.4-1.9-0.9-3.7-1.6-5.5
			c-0.3-0.9-0.8-1.7-1.4-2.4c-2-2.4-5-2.2-6.2,0.6c-1,2.4-1.8,4.9-2.4,7.5C1190.8,20.7,1191.9,22,1195.5,22z M1167.4,43.4
			c-0.1-0.8-0.1-1.4-0.2-2c-0.7-4.3-4.2-6-7.7-7.7c-0.2-0.1-0.4-0.1-0.6,0c-1.7,0.5-3.4,0.9-5.1,1.4c-0.6,0.2-0.8,0.6-0.6,1.2
			c0.5,1.8,1.8,3.2,3.3,4.2c2.6,1.9,5.4,3.6,8,5.4c0.2,0.1,0.3,0.3,0.5,0.3c1.1,0.6,1.7,0.4,2-0.8
			C1167.2,44.8,1167.3,44,1167.4,43.4z M1205.7,44.6c0.9-4.7-1.8-8.6-7.4-10.9c-1.6-0.7-6.7,1.2-8.1,3c3,2.9,6.6,5,10.1,7.1
			c0.2,0.1,0.5,0.1,0.7,0.2C1202.6,44.2,1204.1,44.4,1205.7,44.6z M1162.4,51.9c-1.2-1.5-2.2-3-3.5-4.1c-2.8-2.2-5.7-4.3-8.6-6.4
			c-1-0.7-2-0.3-2.2,0.9c-0.1,1.1-0.2,2.2-0.1,3.3c0.4,3.2,2.1,5.6,5.2,7C1156.2,54,1159.2,53.7,1162.4,51.9z M1186.5,43.3
			c-0.5,4.2,1.6,7.9,5.3,9.5c3.2,1.4,7.8,0.7,9.7-1.5c-1.5-1.3-3-2.6-4.6-3.8c-0.9-0.7-1.9-1.3-3-1.9
			C1191.7,44.3,1189.4,42.8,1186.5,43.3z"/>
	</g>
	<path class="st0" d="M1144.2,43"/>
	<path class="st0" d="M1147.1,37.4l21.3,0.3l41.1-0.3l-4-5.4c0,0-21-1.9-21.9-1.9s-24.7,1.1-25.7,1c-1-0.1-10.8,2.5-10.8,2.5
		L1147.1,37.4L1147.1,37.4z"/>
</g>
<g>
	<g>
		<path class="st0" d="M235.1,85.9c-6.9,0.6-13.8-1.4-20.7-3.1c-5.1-1.3-9.4-4.4-13.5-7.5c-1-0.7-1.9-1.5-2.9-2.2
			c-4.8-3.3-7.6-7.7-8.7-13.3c-1.2-5.5-1.6-11.1-1-16.6c0.4-3.2,1.5-6.4,2.2-9.6c1.7-7.2,4.6-14,8.4-20.4c1.9-3.3,4.3-6.3,7.3-8.8
			c1.1-0.9,2.1-1.8,3.1-2.8c2-1.9,5.5-2.3,7.7-0.7c2.2,1.5,3.9,3.3,4.8,5.7c0.9,2.4,1.6,4.8,2.6,7.1c1.3,2.7,2.6,5.4,4.5,7.8
			c0.9,1.2,2.9,1.5,4.4,2.2c0.4,0.2,0.9,0.1,1.4,0.2c3.6,0.3,5-0.7,6-4c0.1-0.4,0.2-0.7,0.4-1c2.9-5,5.8-10,8.7-15
			c1.7-2.8,4.2-4,7.5-3.3c0.9,0.2,1.8,0.5,2.5,1.1c4.6,3.6,8.5,7.8,11.1,13c2,4,4.4,7.9,6.2,12.1c1.5,3.5,2.7,7.3,3.4,11
			c1.1,6.1,1.7,12.2,0.9,18.4c-1,7.5-4.1,14.1-9.9,19.4c-1.2,1.1-2.6,2.2-4.1,2.8c-4.5,1.9-8.9,4-13.7,5.3
			C247.8,85.2,241.7,86.1,235.1,85.9z M205,19.7c0,0.4,0,0.8,0,1.2c0.2,2.3,1.1,3.1,3.4,3.3c1.3,0.1,2.7,0.1,4.1-0.1
			c3.3-0.6,6.4-2.5,4.3-7.1c-0.6-1.3-0.7-2.7-1.2-4c-0.4-0.9-0.8-1.9-1.5-2.6c-1.4-1.5-2.9-1.4-4.3,0.2c-0.6,0.8-1.3,1.6-1.8,2.4
			C206.7,15.1,204.8,16.9,205,19.7z M255.7,22c1.3-0.1,3.2-0.3,5.1-0.6c2.1-0.4,3.1-1.6,2.7-3.6c-0.4-1.9-0.9-3.7-1.6-5.5
			c-0.3-0.9-0.8-1.7-1.4-2.4c-2-2.4-5-2.2-6.2,0.6c-1,2.4-1.8,4.9-2.4,7.5C251,20.7,252.1,22,255.7,22z M227.6,43.4
			c-0.1-0.8-0.1-1.4-0.2-2c-0.7-4.3-4.2-6-7.7-7.7c-0.2-0.1-0.4-0.1-0.6,0c-1.7,0.5-3.4,0.9-5.1,1.4c-0.6,0.2-0.8,0.6-0.6,1.2
			c0.5,1.8,1.8,3.2,3.3,4.2c2.6,1.9,5.4,3.6,8,5.4c0.2,0.1,0.3,0.3,0.5,0.3c1.1,0.6,1.7,0.4,2-0.8C227.4,44.8,227.5,44,227.6,43.4z
			 M265.9,44.6c0.9-4.7-1.8-8.6-7.4-10.9c-1.6-0.7-6.7,1.2-8.1,3c3,2.9,6.6,5,10.1,7.1c0.2,0.1,0.5,0.1,0.7,0.2
			C262.8,44.2,264.3,44.4,265.9,44.6z M222.6,51.9c-1.2-1.5-2.2-3-3.5-4.1c-2.8-2.2-5.7-4.3-8.6-6.4c-1-0.7-2-0.3-2.2,0.9
			c-0.1,1.1-0.2,2.2-0.1,3.3c0.4,3.2,2.1,5.6,5.2,7C216.4,54,219.4,53.7,222.6,51.9z M246.7,43.3c-0.5,4.2,1.6,7.9,5.3,9.5
			c3.2,1.4,7.8,0.7,9.7-1.5c-1.5-1.3-3-2.6-4.6-3.8c-0.9-0.7-1.9-1.3-3-1.9C251.9,44.3,249.6,42.8,246.7,43.3z"/>
	</g>
	<path class="st0" d="M204.4,43"/>
	<path class="st0" d="M207.3,39.7l21.3,0.4l41.1-0.4l-4-7.2c0,0-21-2.5-21.9-2.5c-0.8,0-24.7,1.4-25.7,1.4c-1-0.1-10.8,3.4-10.8,3.4
		L207.3,39.7L207.3,39.7z"/>
</g>
<g>
	<g>
		<path class="st0" d="M329,85.9c-6.9,0.6-13.8-1.4-20.7-3.1c-5.1-1.3-9.4-4.4-13.5-7.5c-1-0.7-1.9-1.5-2.9-2.2
			c-4.8-3.3-7.6-7.7-8.7-13.3c-1.2-5.5-1.6-11.1-1-16.6c0.4-3.2,1.5-6.4,2.2-9.6c1.7-7.2,4.6-14,8.4-20.4c1.9-3.3,4.3-6.3,7.3-8.8
			c1.1-0.9,2.1-1.8,3.1-2.8c2-1.9,5.5-2.3,7.7-0.7c2.2,1.5,3.9,3.3,4.8,5.7c0.9,2.4,1.6,4.8,2.6,7.1c1.3,2.7,2.6,5.4,4.5,7.8
			c0.9,1.2,2.9,1.5,4.4,2.2c0.4,0.2,0.9,0.1,1.4,0.2c3.6,0.3,5-0.7,6-4c0.1-0.4,0.2-0.7,0.4-1c2.9-5,5.8-10,8.7-15
			c1.7-2.8,4.2-4,7.5-3.3c0.9,0.2,1.8,0.5,2.5,1.1c4.6,3.6,8.5,7.8,11.1,13c2,4,4.4,7.9,6.2,12.1c1.5,3.5,2.7,7.3,3.4,11
			c1.1,6.1,1.7,12.2,0.9,18.4c-1,7.5-4.1,14.1-9.9,19.4c-1.2,1.1-2.6,2.2-4.1,2.8c-4.5,1.9-8.9,4-13.7,5.3
			C341.8,85.2,335.6,86.1,329,85.9z M299,19.7c0,0.4,0,0.8,0,1.2c0.2,2.3,1.1,3.1,3.4,3.3c1.3,0.1,2.7,0.1,4.1-0.1
			c3.3-0.6,6.4-2.5,4.3-7.1c-0.6-1.3-0.7-2.7-1.2-4c-0.4-0.9-0.8-1.9-1.5-2.6c-1.4-1.5-2.9-1.4-4.3,0.2c-0.6,0.8-1.3,1.6-1.8,2.4
			C300.7,15.1,298.7,16.9,299,19.7z M349.6,22c1.3-0.1,3.2-0.3,5.1-0.6c2.1-0.4,3.1-1.6,2.7-3.6c-0.4-1.9-0.9-3.7-1.6-5.5
			c-0.3-0.9-0.8-1.7-1.4-2.4c-2-2.4-5-2.2-6.2,0.6c-1,2.4-1.8,4.9-2.4,7.5C345,20.7,346.1,22,349.6,22z M321.6,43.4
			c-0.1-0.8-0.1-1.4-0.2-2c-0.7-4.3-4.2-6-7.7-7.7c-0.2-0.1-0.4-0.1-0.6,0c-1.7,0.5-3.4,0.9-5.1,1.4c-0.6,0.2-0.8,0.6-0.6,1.2
			c0.5,1.8,1.8,3.2,3.3,4.2c2.6,1.9,5.4,3.6,8,5.4c0.2,0.1,0.3,0.3,0.5,0.3c1.1,0.6,1.7,0.4,2-0.8C321.4,44.8,321.5,44,321.6,43.4z
			 M359.9,44.6c0.9-4.7-1.8-8.6-7.4-10.9c-1.6-0.7-6.7,1.2-8.1,3c3,2.9,6.6,5,10.1,7.1c0.2,0.1,0.5,0.1,0.7,0.2
			C356.8,44.2,358.3,44.4,359.9,44.6z M316.6,51.9c-1.2-1.5-2.2-3-3.5-4.1c-2.8-2.2-5.7-4.3-8.6-6.4c-1-0.7-2-0.3-2.2,0.9
			c-0.1,1.1-0.2,2.2-0.1,3.3c0.4,3.2,2.1,5.6,5.2,7C310.4,54,313.4,53.7,316.6,51.9z M340.7,43.3c-0.5,4.2,1.6,7.9,5.3,9.5
			c3.2,1.4,7.8,0.7,9.7-1.5c-1.5-1.3-3-2.6-4.6-3.8c-0.9-0.7-1.9-1.3-3-1.9C345.9,44.3,343.6,42.8,340.7,43.3z"/>
	</g>
	<path class="st0" d="M298.3,43"/>
	<path class="st0" d="M301.2,41.9l21.3,0.5l41.1-0.5l-4-8.7c0,0-21-3.1-21.9-3.1s-24.7,1.7-25.7,1.6c-1-0.1-10.8,4.1-10.8,4.1
		L301.2,41.9L301.2,41.9z"/>
</g>
<g>
	<g>
		<path class="st0" d="M1080.9,85.9c-6.9,0.6-13.8-1.4-20.7-3.1c-5.1-1.3-9.4-4.4-13.5-7.5c-1-0.7-1.9-1.5-2.9-2.2
			c-4.8-3.3-7.6-7.7-8.7-13.3c-1.2-5.5-1.6-11.1-1-16.6c0.4-3.2,1.5-6.4,2.2-9.6c1.7-7.2,4.6-14,8.4-20.4c1.9-3.3,4.3-6.3,7.3-8.8
			c1.1-0.9,2.1-1.8,3.1-2.8c2-1.9,5.5-2.3,7.7-0.7c2.2,1.5,3.9,3.3,4.8,5.7c0.9,2.4,1.6,4.8,2.6,7.1c1.3,2.7,2.6,5.4,4.5,7.8
			c0.9,1.2,2.9,1.5,4.4,2.2c0.4,0.2,0.9,0.1,1.4,0.2c3.6,0.3,5-0.7,6-4c0.1-0.4,0.2-0.7,0.4-1c2.9-5,5.8-10,8.7-15
			c1.7-2.8,4.2-4,7.5-3.3c0.9,0.2,1.8,0.5,2.5,1.1c4.6,3.6,8.5,7.8,11.1,13c2,4,4.4,7.9,6.2,12.1c1.5,3.5,2.7,7.3,3.4,11
			c1.1,6.1,1.7,12.2,0.9,18.4c-1,7.5-4.1,14.1-9.9,19.4c-1.2,1.1-2.6,2.2-4.1,2.8c-4.5,1.9-8.9,4-13.7,5.3
			C1093.6,85.2,1087.5,86.1,1080.9,85.9z M1050.8,19.7c0,0.4,0,0.8,0.1,1.2c0.2,2.3,1.1,3.1,3.4,3.3c1.3,0.1,2.7,0.1,4.1-0.1
			c3.3-0.6,6.4-2.5,4.3-7.1c-0.6-1.3-0.7-2.7-1.2-4c-0.4-0.9-0.8-1.9-1.5-2.6c-1.4-1.5-2.9-1.4-4.3,0.2c-0.6,0.8-1.3,1.6-1.8,2.4
			C1052.5,15.1,1050.6,16.9,1050.8,19.7z M1101.5,22c1.3-0.1,3.2-0.3,5.1-0.6c2.1-0.4,3.1-1.6,2.7-3.6c-0.4-1.9-0.9-3.7-1.6-5.5
			c-0.3-0.9-0.8-1.7-1.4-2.4c-2-2.4-5-2.2-6.2,0.6c-1,2.4-1.8,4.9-2.4,7.5C1096.8,20.7,1098,22,1101.5,22z M1073.4,43.4
			c-0.1-0.8-0.1-1.4-0.2-2c-0.7-4.3-4.2-6-7.7-7.7c-0.2-0.1-0.4-0.1-0.6,0c-1.7,0.5-3.4,0.9-5.1,1.4c-0.6,0.2-0.8,0.6-0.6,1.2
			c0.5,1.8,1.8,3.2,3.3,4.2c2.6,1.9,5.4,3.6,8,5.4c0.2,0.1,0.3,0.3,0.5,0.3c1.1,0.6,1.7,0.4,2-0.8
			C1073.2,44.8,1073.3,44,1073.4,43.4z M1111.7,44.6c0.9-4.7-1.8-8.6-7.4-10.9c-1.6-0.7-6.7,1.2-8.1,3c3,2.9,6.6,5,10.1,7.1
			c0.2,0.1,0.5,0.1,0.7,0.2C1108.6,44.2,1110.1,44.4,1111.7,44.6z M1068.4,51.9c-1.2-1.5-2.2-3-3.5-4.1c-2.8-2.2-5.7-4.3-8.6-6.4
			c-1-0.7-2-0.3-2.2,0.9c-0.2,1.1-0.3,2.2-0.1,3.3c0.4,3.2,2.1,5.6,5.2,7C1062.2,54,1065.2,53.7,1068.4,51.9z M1092.5,43.3
			c-0.5,4.2,1.6,7.9,5.3,9.5c3.2,1.4,7.8,0.7,9.7-1.5c-1.5-1.3-3-2.6-4.6-3.8c-0.9-0.7-1.9-1.3-3-1.9
			C1097.7,44.3,1095.5,42.8,1092.5,43.3z"/>
	</g>
	<path class="st0" d="M1050.2,43"/>
	<path class="st0" d="M1053.1,41.9l21.3,0.5l41.1-0.5l-4-8.7c0,0-21-3.1-21.9-3.1c-0.8,0-24.7,1.7-25.7,1.6
		c-1-0.1-10.8,4.1-10.8,4.1L1053.1,41.9L1053.1,41.9z"/>
</g>
<g>
	<g>
		<path class="st0" d="M423,85.9c-6.9,0.6-13.8-1.4-20.7-3.1c-5.1-1.3-9.4-4.4-13.5-7.5c-1-0.7-1.9-1.5-2.9-2.2
			c-4.8-3.3-7.6-7.7-8.7-13.3c-1.2-5.5-1.6-11.1-1-16.6c0.4-3.2,1.5-6.4,2.2-9.6c1.7-7.2,4.6-14,8.4-20.4c1.9-3.3,4.3-6.3,7.3-8.8
			c1.1-0.9,2.1-1.8,3.1-2.8c2-1.9,5.5-2.3,7.7-0.7c2.2,1.5,3.9,3.3,4.8,5.7c0.9,2.4,1.6,4.8,2.6,7.1c1.3,2.7,2.6,5.4,4.5,7.8
			c0.9,1.2,2.9,1.5,4.4,2.2c0.4,0.2,0.9,0.1,1.4,0.2c3.6,0.3,5-0.7,6-4c0.1-0.4,0.2-0.7,0.4-1c2.9-5,5.8-10,8.7-15
			c1.7-2.8,4.2-4,7.5-3.3c0.9,0.2,1.8,0.5,2.5,1.1c4.6,3.6,8.5,7.8,11.1,13c2,4,4.4,7.9,6.2,12.1c1.5,3.5,2.7,7.3,3.4,11
			c1.1,6.1,1.7,12.2,0.9,18.4c-1,7.5-4.1,14.1-9.9,19.4c-1.2,1.1-2.6,2.2-4.1,2.8c-4.5,1.9-8.9,4-13.7,5.3
			C435.7,85.2,429.6,86.1,423,85.9z M393,19.7c0,0.4,0,0.8,0,1.2c0.2,2.3,1.1,3.1,3.4,3.3c1.3,0.1,2.7,0.1,4.1-0.1
			c3.3-0.6,6.4-2.5,4.3-7.1c-0.6-1.3-0.7-2.7-1.2-4c-0.4-0.9-0.8-1.9-1.5-2.6c-1.4-1.5-2.9-1.4-4.3,0.2c-0.6,0.8-1.3,1.6-1.8,2.4
			C394.7,15.1,392.7,16.9,393,19.7z M443.6,22c1.3-0.1,3.2-0.3,5.1-0.6c2.1-0.4,3.1-1.6,2.7-3.6c-0.4-1.9-0.9-3.7-1.6-5.5
			c-0.3-0.9-0.8-1.7-1.4-2.4c-2-2.4-5-2.2-6.2,0.6c-1,2.4-1.8,4.9-2.4,7.5C439,20.7,440.1,22,443.6,22z M415.5,43.4
			c-0.1-0.8-0.1-1.4-0.2-2c-0.7-4.3-4.2-6-7.7-7.7c-0.2-0.1-0.4-0.1-0.6,0c-1.7,0.5-3.4,0.9-5.1,1.4c-0.6,0.2-0.8,0.6-0.6,1.2
			c0.5,1.8,1.8,3.2,3.3,4.2c2.6,1.9,5.4,3.6,8,5.4c0.2,0.1,0.3,0.3,0.5,0.3c1.1,0.6,1.7,0.4,2-0.8C415.4,44.8,415.5,44,415.5,43.4z
			 M453.9,44.6c0.9-4.7-1.8-8.6-7.4-10.9c-1.6-0.7-6.7,1.2-8.1,3c3,2.9,6.6,5,10.1,7.1c0.2,0.1,0.5,0.1,0.7,0.2
			C450.8,44.2,452.3,44.4,453.9,44.6z M410.5,51.9c-1.2-1.5-2.2-3-3.5-4.1c-2.8-2.2-5.7-4.3-8.6-6.4c-1-0.7-2-0.3-2.2,0.9
			c-0.1,1.1-0.2,2.2-0.1,3.3c0.4,3.2,2.1,5.6,5.2,7C404.4,54,407.3,53.7,410.5,51.9z M434.7,43.3c-0.5,4.2,1.6,7.9,5.3,9.5
			c3.2,1.4,7.8,0.7,9.7-1.5c-1.5-1.3-3-2.6-4.6-3.8c-0.9-0.7-1.9-1.3-3-1.9C439.8,44.3,437.6,42.8,434.7,43.3z"/>
	</g>
	<path class="st0" d="M392.3,43"/>
	<path class="st0" d="M395.2,44l21.3,0.6l41.1-0.6l-4-10.3c0,0-21-3.7-21.9-3.7S407,32.1,406,32c-1-0.1-10.8,4.8-10.8,4.8L395.2,44
		L395.2,44z"/>
</g>
<g>
	<g>
		<path class="st0" d="M986.9,85.9c-6.9,0.6-13.8-1.4-20.7-3.1c-5.1-1.3-9.4-4.4-13.5-7.5c-1-0.7-1.9-1.5-2.9-2.2
			c-4.8-3.3-7.6-7.7-8.7-13.3c-1.2-5.5-1.6-11.1-1-16.6c0.4-3.2,1.5-6.4,2.2-9.6c1.7-7.2,4.6-14,8.4-20.4c1.9-3.3,4.3-6.3,7.3-8.8
			c1.1-0.9,2.1-1.8,3.1-2.8c2-1.9,5.5-2.3,7.7-0.7c2.2,1.5,3.9,3.3,4.8,5.7c0.9,2.4,1.6,4.8,2.6,7.1c1.3,2.7,2.6,5.4,4.5,7.8
			c0.9,1.2,2.9,1.5,4.4,2.2c0.4,0.2,0.9,0.1,1.4,0.2c3.6,0.3,5-0.7,6-4c0.1-0.4,0.2-0.7,0.4-1c2.9-5,5.8-10,8.7-15
			c1.7-2.8,4.2-4,7.5-3.3c0.9,0.2,1.8,0.5,2.5,1.1c4.6,3.6,8.5,7.8,11.1,13c2,4,4.4,7.9,6.2,12.1c1.5,3.5,2.7,7.3,3.4,11
			c1.1,6.1,1.7,12.2,0.9,18.4c-1,7.5-4.1,14.1-9.9,19.4c-1.2,1.1-2.6,2.2-4.1,2.8c-4.5,1.9-8.9,4-13.7,5.3
			C999.6,85.2,993.5,86.1,986.9,85.9z M956.9,19.7c0,0.4,0,0.8,0,1.2c0.2,2.3,1.1,3.1,3.4,3.3c1.3,0.1,2.7,0.1,4.1-0.1
			c3.3-0.6,6.4-2.5,4.3-7.1c-0.6-1.3-0.7-2.7-1.2-4c-0.4-0.9-0.8-1.9-1.5-2.6c-1.4-1.5-2.9-1.4-4.3,0.2c-0.6,0.8-1.3,1.6-1.8,2.4
			C958.6,15.1,956.6,16.9,956.9,19.7z M1007.5,22c1.3-0.1,3.2-0.3,5.1-0.6c2.1-0.4,3.1-1.6,2.7-3.6c-0.4-1.9-0.9-3.7-1.6-5.5
			c-0.3-0.9-0.8-1.7-1.4-2.4c-2-2.4-5-2.2-6.2,0.6c-1,2.4-1.8,4.9-2.4,7.5C1002.8,20.7,1004,22,1007.5,22z M979.4,43.4
			c-0.1-0.8-0.1-1.4-0.2-2c-0.7-4.3-4.2-6-7.7-7.7c-0.2-0.1-0.4-0.1-0.6,0c-1.7,0.5-3.4,0.9-5.1,1.4c-0.6,0.2-0.8,0.6-0.6,1.2
			c0.5,1.8,1.8,3.2,3.3,4.2c2.6,1.9,5.4,3.6,8,5.4c0.2,0.1,0.3,0.3,0.5,0.3c1.1,0.6,1.7,0.4,2-0.8C979.3,44.8,979.3,44,979.4,43.4z
			 M1017.7,44.6c0.9-4.7-1.8-8.6-7.4-10.9c-1.6-0.7-6.7,1.2-8.1,3c3,2.9,6.6,5,10.1,7.1c0.2,0.1,0.5,0.1,0.7,0.2
			C1014.6,44.2,1016.1,44.4,1017.7,44.6z M974.4,51.9c-1.2-1.5-2.2-3-3.5-4.1c-2.8-2.2-5.7-4.3-8.6-6.4c-1-0.7-2-0.3-2.2,0.9
			c-0.1,1.1-0.2,2.2-0.1,3.3c0.4,3.2,2.1,5.6,5.2,7C968.2,54,971.2,53.7,974.4,51.9z M998.6,43.3c-0.5,4.2,1.6,7.9,5.3,9.5
			c3.2,1.4,7.8,0.7,9.7-1.5c-1.5-1.3-3-2.6-4.6-3.8c-0.9-0.7-1.9-1.3-3-1.9C1003.7,44.3,1001.5,42.8,998.6,43.3z"/>
	</g>
	<path class="st0" d="M956.2,43"/>
	<path class="st0" d="M959.1,44l21.3,0.6l41.1-0.6l-4-10.3c0,0-21-3.7-21.9-3.7c-0.8,0-24.7,2.1-25.7,1.9c-1-0.1-10.8,4.8-10.8,4.8
		L959.1,44L959.1,44z"/>
</g>
<g>
	<g>
		<path class="st0" d="M517,85.9c-6.9,0.6-13.8-1.4-20.7-3.1c-5.1-1.3-9.4-4.4-13.5-7.5c-1-0.7-1.9-1.5-2.9-2.2
			c-4.8-3.3-7.6-7.7-8.7-13.3c-1.2-5.5-1.6-11.1-1-16.6c0.4-3.2,1.5-6.4,2.2-9.6c1.7-7.2,4.6-14,8.4-20.4c1.9-3.3,4.3-6.3,7.3-8.8
			c1.1-0.9,2.1-1.8,3.1-2.8c2-1.9,5.5-2.3,7.7-0.7c2.2,1.5,3.9,3.3,4.8,5.7c0.9,2.4,1.6,4.8,2.6,7.1c1.3,2.7,2.6,5.4,4.5,7.8
			c0.9,1.2,2.9,1.5,4.4,2.2c0.4,0.2,0.9,0.1,1.4,0.2c3.6,0.3,5-0.7,6-4c0.1-0.4,0.2-0.7,0.4-1c2.9-5,5.8-10,8.7-15
			c1.7-2.8,4.2-4,7.5-3.3c0.9,0.2,1.8,0.5,2.5,1.1c4.6,3.6,8.5,7.8,11.1,13c2,4,4.4,7.9,6.2,12.1c1.5,3.5,2.7,7.3,3.4,11
			c1.1,6.1,1.7,12.2,0.9,18.4c-1,7.5-4.1,14.1-9.9,19.4c-1.2,1.1-2.6,2.2-4.1,2.8c-4.5,1.9-8.9,4-13.7,5.3
			C529.7,85.2,523.6,86.1,517,85.9z M487,19.7c0,0.4,0,0.8,0,1.2c0.2,2.3,1.1,3.1,3.4,3.3c1.3,0.1,2.7,0.1,4.1-0.1
			c3.3-0.6,6.4-2.5,4.3-7.1c-0.6-1.3-0.7-2.7-1.2-4c-0.4-0.9-0.8-1.9-1.5-2.6c-1.4-1.5-2.9-1.4-4.3,0.2c-0.6,0.8-1.3,1.6-1.8,2.4
			C488.7,15.1,486.7,16.9,487,19.7z M537.6,22c1.3-0.1,3.2-0.3,5.1-0.6c2.1-0.4,3.1-1.6,2.7-3.6c-0.4-1.9-0.9-3.7-1.6-5.5
			c-0.3-0.9-0.8-1.7-1.4-2.4c-2-2.4-5-2.2-6.2,0.6c-1,2.4-1.8,4.9-2.4,7.5C532.9,20.7,534.1,22,537.6,22z M509.5,43.4
			c-0.1-0.8-0.1-1.4-0.2-2c-0.7-4.3-4.2-6-7.7-7.7c-0.2-0.1-0.4-0.1-0.6,0c-1.7,0.5-3.4,0.9-5.1,1.4c-0.6,0.2-0.8,0.6-0.6,1.2
			c0.5,1.8,1.8,3.2,3.3,4.2c2.6,1.9,5.4,3.6,8,5.4c0.2,0.1,0.3,0.3,0.5,0.3c1.1,0.6,1.7,0.4,2-0.8C509.4,44.8,509.4,44,509.5,43.4z
			 M547.8,44.6c0.9-4.7-1.8-8.6-7.4-10.9c-1.6-0.7-6.7,1.2-8.1,3c3,2.9,6.6,5,10.1,7.1c0.2,0.1,0.5,0.1,0.7,0.2
			C544.7,44.2,546.2,44.4,547.8,44.6z M504.5,51.9c-1.2-1.5-2.2-3-3.5-4.1c-2.8-2.2-5.7-4.3-8.6-6.4c-1-0.7-2-0.3-2.2,0.9
			c-0.1,1.1-0.2,2.2-0.1,3.3c0.4,3.2,2.1,5.6,5.2,7C498.3,54,501.3,53.7,504.5,51.9z M528.7,43.3c-0.5,4.2,1.6,7.9,5.3,9.5
			c3.2,1.4,7.8,0.7,9.7-1.5c-1.5-1.3-3-2.6-4.6-3.8c-0.9-0.7-1.9-1.3-3-1.9C533.8,44.3,531.6,42.8,528.7,43.3z"/>
	</g>
	<path class="st0" d="M486.3,43"/>
	<path class="st0" d="M489.2,46l21.3,0.7l41.1-0.7l-4-11.8c0,0-21-4.2-21.9-4.2S501,32.4,500,32.3c-1-0.1-10.8,5.5-10.8,5.5
		L489.2,46L489.2,46z"/>
</g>
<g>
	<g>
		<path class="st0" d="M892.9,85.9c-6.9,0.6-13.8-1.4-20.7-3.1c-5.1-1.3-9.4-4.4-13.5-7.5c-1-0.7-1.9-1.5-2.9-2.2
			c-4.8-3.3-7.6-7.7-8.7-13.3c-1.2-5.5-1.6-11.1-1-16.6c0.4-3.2,1.5-6.4,2.2-9.6c1.7-7.2,4.6-14,8.4-20.4c1.9-3.3,4.3-6.3,7.3-8.8
			c1.1-0.9,2.1-1.8,3.1-2.8c2-1.9,5.5-2.3,7.7-0.7c2.2,1.5,3.9,3.3,4.8,5.7c0.9,2.4,1.6,4.8,2.6,7.1c1.3,2.7,2.6,5.4,4.5,7.8
			c0.9,1.2,2.9,1.5,4.4,2.2c0.4,0.2,0.9,0.1,1.4,0.2c3.6,0.3,5-0.7,6-4c0.1-0.4,0.2-0.7,0.4-1c2.9-5,5.8-10,8.7-15
			c1.7-2.8,4.2-4,7.5-3.3c0.9,0.2,1.8,0.5,2.5,1.1c4.6,3.6,8.5,7.8,11.1,13c2,4,4.4,7.9,6.2,12.1c1.5,3.5,2.7,7.3,3.4,11
			c1.1,6.1,1.7,12.2,0.9,18.4c-1,7.5-4.1,14.1-9.9,19.4c-1.2,1.1-2.6,2.2-4.1,2.8c-4.5,1.9-8.9,4-13.7,5.3
			C905.6,85.2,899.5,86.1,892.9,85.9z M862.9,19.7c0,0.4,0,0.8,0,1.2c0.2,2.3,1.1,3.1,3.4,3.3c1.3,0.1,2.7,0.1,4.1-0.1
			c3.3-0.6,6.4-2.5,4.3-7.1c-0.6-1.3-0.7-2.7-1.2-4c-0.4-0.9-0.8-1.9-1.5-2.6c-1.4-1.5-2.9-1.4-4.3,0.2c-0.6,0.8-1.3,1.6-1.8,2.4
			C864.6,15.1,862.6,16.9,862.9,19.7z M913.5,22c1.3-0.1,3.2-0.3,5.1-0.6c2.1-0.4,3.1-1.6,2.7-3.6c-0.4-1.9-0.9-3.7-1.6-5.5
			c-0.3-0.9-0.8-1.7-1.4-2.4c-2-2.4-5-2.2-6.2,0.6c-1,2.4-1.8,4.9-2.4,7.5C908.9,20.7,910,22,913.5,22z M885.4,43.4
			c-0.1-0.8-0.1-1.4-0.2-2c-0.7-4.3-4.2-6-7.7-7.7c-0.2-0.1-0.4-0.1-0.6,0c-1.7,0.5-3.4,0.9-5.1,1.4c-0.6,0.2-0.8,0.6-0.6,1.2
			c0.5,1.8,1.8,3.2,3.3,4.2c2.6,1.9,5.4,3.6,8,5.4c0.2,0.1,0.3,0.3,0.5,0.3c1.1,0.6,1.7,0.4,2-0.8C885.3,44.8,885.4,44,885.4,43.4z
			 M923.8,44.6c0.9-4.7-1.8-8.6-7.4-10.9c-1.6-0.7-6.7,1.2-8.1,3c3,2.9,6.6,5,10.1,7.1c0.2,0.1,0.5,0.1,0.7,0.2
			C920.7,44.2,922.2,44.4,923.8,44.6z M880.4,51.9c-1.2-1.5-2.2-3-3.5-4.1c-2.8-2.2-5.7-4.3-8.6-6.4c-1-0.7-2-0.3-2.2,0.9
			c-0.1,1.1-0.2,2.2-0.1,3.3c0.4,3.2,2.1,5.6,5.2,7C874.3,54,877.2,53.7,880.4,51.9z M904.6,43.3c-0.5,4.2,1.6,7.9,5.3,9.5
			c3.2,1.4,7.8,0.7,9.7-1.5c-1.5-1.3-3-2.6-4.6-3.8c-0.9-0.7-1.9-1.3-3-1.9C909.7,44.3,907.5,42.8,904.6,43.3z"/>
	</g>
	<path class="st0" d="M862.2,43"/>
	<path class="st0" d="M865.1,46l21.3,0.7l41.1-0.7l-4-11.8c0,0-21-4.2-21.9-4.2s-24.7,2.3-25.7,2.2c-1-0.1-10.8,5.5-10.8,5.5
		L865.1,46L865.1,46z"/>
</g>
<g>
	<g>
		<path class="st0" d="M611,85.9c-6.9,0.6-13.8-1.4-20.7-3.1c-5.1-1.3-9.4-4.4-13.5-7.5c-1-0.7-1.9-1.5-2.9-2.2
			c-4.8-3.3-7.6-7.7-8.7-13.3c-1.2-5.5-1.6-11.1-1-16.6c0.4-3.2,1.5-6.4,2.2-9.6c1.7-7.2,4.6-14,8.4-20.4c1.9-3.3,4.3-6.3,7.3-8.8
			c1.1-0.9,2.1-1.8,3.1-2.8c2-1.9,5.5-2.3,7.7-0.7c2.2,1.5,3.9,3.3,4.8,5.7c0.9,2.4,1.6,4.8,2.6,7.1c1.3,2.7,2.6,5.4,4.5,7.8
			c0.9,1.2,2.9,1.5,4.4,2.2c0.4,0.2,0.9,0.1,1.4,0.2c3.6,0.3,5-0.7,6-4c0.1-0.4,0.2-0.7,0.4-1c2.9-5,5.8-10,8.7-15
			c1.7-2.8,4.2-4,7.5-3.3c0.9,0.2,1.8,0.5,2.5,1.1c4.6,3.6,8.5,7.8,11.1,13c2,4,4.4,7.9,6.2,12.1c1.5,3.5,2.7,7.3,3.4,11
			c1.1,6.1,1.7,12.2,0.9,18.4c-1,7.5-4.1,14.1-9.9,19.4c-1.2,1.1-2.6,2.2-4.1,2.8c-4.5,1.9-8.9,4-13.7,5.3
			C623.7,85.2,617.6,86.1,611,85.9z M580.9,19.7c0,0.4,0,0.8,0,1.2c0.2,2.3,1.1,3.1,3.4,3.3c1.3,0.1,2.7,0.1,4.1-0.1
			c3.3-0.6,6.4-2.5,4.3-7.1c-0.6-1.3-0.7-2.7-1.2-4c-0.4-0.9-0.8-1.9-1.5-2.6c-1.4-1.5-2.9-1.4-4.3,0.2c-0.6,0.8-1.3,1.6-1.8,2.4
			C582.6,15.1,580.7,16.9,580.9,19.7z M631.6,22c1.3-0.1,3.2-0.3,5.1-0.6c2.1-0.4,3.1-1.6,2.7-3.6c-0.4-1.9-0.9-3.7-1.6-5.5
			c-0.3-0.9-0.8-1.7-1.4-2.4c-2-2.4-5-2.2-6.2,0.6c-1,2.4-1.8,4.9-2.4,7.5C626.9,20.7,628.1,22,631.6,22z M603.5,43.4
			c-0.1-0.8-0.1-1.4-0.2-2c-0.7-4.3-4.2-6-7.7-7.7c-0.2-0.1-0.4-0.1-0.6,0c-1.7,0.5-3.4,0.9-5.1,1.4c-0.6,0.2-0.8,0.6-0.6,1.2
			c0.5,1.8,1.8,3.2,3.3,4.2c2.6,1.9,5.4,3.6,8,5.4c0.2,0.1,0.3,0.3,0.5,0.3c1.1,0.6,1.7,0.4,2-0.8C603.3,44.8,603.4,44,603.5,43.4z
			 M641.8,44.6c0.9-4.7-1.8-8.6-7.4-10.9c-1.6-0.7-6.7,1.2-8.1,3c3,2.9,6.6,5,10.1,7.1c0.2,0.1,0.5,0.1,0.7,0.2
			C638.7,44.2,640.2,44.4,641.8,44.6z M598.5,51.9c-1.2-1.5-2.2-3-3.5-4.1c-2.8-2.2-5.7-4.3-8.6-6.4c-1-0.7-2-0.3-2.2,0.9
			c-0.1,1.1-0.2,2.2-0.1,3.3c0.4,3.2,2.1,5.6,5.2,7C592.3,54,595.3,53.7,598.5,51.9z M622.6,43.3c-0.5,4.2,1.6,7.9,5.3,9.5
			c3.2,1.4,7.8,0.7,9.7-1.5c-1.5-1.3-3-2.6-4.6-3.8c-0.9-0.7-1.9-1.3-3-1.9C627.8,44.3,625.6,42.8,622.6,43.3z"/>
	</g>
	<path class="st0" d="M580.3,43"/>
	<path class="st0" d="M583.2,50.2l21.3,0.9l41.1-0.9l-4-15.5c0,0-21-5.5-21.9-5.5s-24.7,3.1-25.7,2.9c-1-0.2-10.8,7.3-10.8,7.3
		L583.2,50.2L583.2,50.2z"/>
</g>
<g>
	<g>
		<path class="st0" d="M798.9,85.9c-6.9,0.6-13.8-1.4-20.7-3.1c-5.1-1.3-9.4-4.4-13.5-7.5c-1-0.7-1.9-1.5-2.9-2.2
			c-4.8-3.3-7.6-7.7-8.7-13.3c-1.2-5.5-1.6-11.1-1-16.6c0.4-3.2,1.5-6.4,2.2-9.6c1.7-7.2,4.6-14,8.4-20.4c1.9-3.3,4.3-6.3,7.3-8.8
			c1.1-0.9,2.1-1.8,3.1-2.8c2-1.9,5.5-2.3,7.7-0.7c2.2,1.5,3.9,3.3,4.8,5.7c0.9,2.4,1.6,4.8,2.6,7.1c1.3,2.7,2.6,5.4,4.5,7.8
			c0.9,1.2,2.9,1.5,4.4,2.2c0.4,0.2,0.9,0.1,1.4,0.2c3.6,0.3,5-0.7,6-4c0.1-0.4,0.2-0.7,0.4-1c2.9-5,5.8-10,8.7-15
			c1.7-2.8,4.2-4,7.5-3.3c0.9,0.2,1.8,0.5,2.5,1.1c4.6,3.6,8.5,7.8,11.1,13c2,4,4.4,7.9,6.2,12.1c1.5,3.5,2.7,7.3,3.4,11
			c1.1,6.1,1.7,12.2,0.9,18.4c-1,7.5-4.1,14.1-9.9,19.4c-1.2,1.1-2.6,2.2-4.1,2.8c-4.5,1.9-8.9,4-13.7,5.3
			C811.7,85.2,805.5,86.1,798.9,85.9z M768.9,19.7c0,0.4,0,0.8,0,1.2c0.2,2.3,1.1,3.1,3.4,3.3c1.3,0.1,2.7,0.1,4.1-0.1
			c3.3-0.6,6.4-2.5,4.3-7.1c-0.6-1.3-0.7-2.7-1.2-4c-0.4-0.9-0.8-1.9-1.5-2.6c-1.4-1.5-2.9-1.4-4.3,0.2c-0.6,0.8-1.3,1.6-1.8,2.4
			C770.6,15.1,768.6,16.9,768.9,19.7z M819.5,22c1.3-0.1,3.2-0.3,5.1-0.6c2.1-0.4,3.1-1.6,2.7-3.6c-0.4-1.9-0.9-3.7-1.6-5.5
			c-0.3-0.9-0.8-1.7-1.4-2.4c-2-2.4-5-2.2-6.2,0.6c-1,2.4-1.8,4.9-2.4,7.5C814.9,20.7,816,22,819.5,22z M791.5,43.4
			c-0.1-0.8-0.1-1.4-0.2-2c-0.7-4.3-4.2-6-7.7-7.7c-0.2-0.1-0.4-0.1-0.6,0c-1.7,0.5-3.4,0.9-5.1,1.4c-0.6,0.2-0.8,0.6-0.6,1.2
			c0.5,1.8,1.8,3.2,3.3,4.2c2.6,1.9,5.4,3.6,8,5.4c0.2,0.1,0.3,0.3,0.5,0.3c1.1,0.6,1.7,0.4,2-0.8C791.3,44.8,791.4,44,791.5,43.4z
			 M829.8,44.6c0.9-4.7-1.8-8.6-7.4-10.9c-1.6-0.7-6.7,1.2-8.1,3c3,2.9,6.6,5,10.1,7.1c0.2,0.1,0.5,0.1,0.7,0.2
			C826.7,44.2,828.2,44.4,829.8,44.6z M786.5,51.9c-1.2-1.5-2.2-3-3.5-4.1c-2.8-2.2-5.7-4.3-8.6-6.4c-1-0.7-2-0.3-2.2,0.9
			c-0.2,1.1-0.2,2.2-0.1,3.3c0.4,3.2,2.1,5.6,5.2,7C780.3,54,783.3,53.7,786.5,51.9z M810.6,43.3c-0.5,4.2,1.6,7.9,5.3,9.5
			c3.2,1.4,7.8,0.7,9.7-1.5c-1.5-1.3-3-2.6-4.6-3.8c-0.9-0.7-1.9-1.3-3-1.9C815.8,44.3,813.5,42.8,810.6,43.3z"/>
	</g>
	<path class="st0" d="M768.2,43"/>
	<path class="st0" d="M771.1,50.5l21.3,0.9l41.1-0.9l-4-16.6c0,0-21-5.9-21.9-5.9c-0.8,0-24.7,3.3-25.7,3.1
		c-1-0.2-10.8,7.8-10.8,7.8L771.1,50.5L771.1,50.5z"/>
</g>
<g>
	<g>
		<path class="st0" d="M705,85.9c-6.9,0.6-13.8-1.4-20.7-3.1c-5.1-1.3-9.4-4.4-13.5-7.5c-1-0.7-1.9-1.5-2.9-2.2
			c-4.8-3.3-7.6-7.7-8.7-13.3c-1.2-5.5-1.6-11.1-1-16.6c0.4-3.2,1.5-6.4,2.2-9.6c1.7-7.2,4.6-14,8.4-20.4c1.9-3.3,4.3-6.3,7.3-8.8
			c1.1-0.9,2.1-1.8,3.1-2.8c2-1.9,5.5-2.3,7.7-0.7c2.2,1.5,3.9,3.3,4.8,5.7c0.9,2.4,1.6,4.8,2.6,7.1c1.3,2.7,2.6,5.4,4.5,7.8
			c0.9,1.2,2.9,1.5,4.4,2.2c0.4,0.2,0.9,0.1,1.4,0.2c3.6,0.3,5-0.7,6-4c0.1-0.4,0.2-0.7,0.4-1c2.9-5,5.8-10,8.7-15
			c1.7-2.8,4.2-4,7.5-3.3c0.9,0.2,1.8,0.5,2.5,1.1c4.6,3.6,8.5,7.8,11.1,13c2,4,4.4,7.9,6.2,12.1c1.5,3.5,2.7,7.3,3.4,11
			c1.1,6.1,1.7,12.2,0.9,18.4c-1,7.5-4.1,14.1-9.9,19.4c-1.2,1.1-2.6,2.2-4.1,2.8c-4.5,1.9-8.9,4-13.7,5.3
			C717.7,85.2,711.6,86.1,705,85.9z M674.9,19.7c0,0.4,0,0.8,0,1.2c0.2,2.3,1.1,3.1,3.4,3.3c1.3,0.1,2.7,0.1,4.1-0.1
			c3.3-0.6,6.4-2.5,4.3-7.1c-0.6-1.3-0.7-2.7-1.2-4c-0.4-0.9-0.8-1.9-1.5-2.6c-1.4-1.5-2.9-1.4-4.3,0.2c-0.6,0.8-1.3,1.6-1.8,2.4
			C676.6,15.1,674.7,16.9,674.9,19.7z M725.6,22c1.3-0.1,3.2-0.3,5.1-0.6c2.1-0.4,3.1-1.6,2.7-3.6c-0.4-1.9-0.9-3.7-1.6-5.5
			c-0.3-0.9-0.8-1.7-1.4-2.4c-2-2.4-5-2.2-6.2,0.6c-1,2.4-1.8,4.9-2.4,7.5C720.9,20.7,722,22,725.6,22z M697.5,43.4
			c-0.1-0.8-0.1-1.4-0.2-2c-0.7-4.3-4.2-6-7.7-7.7c-0.2-0.1-0.4-0.1-0.6,0c-1.7,0.5-3.4,0.9-5.1,1.4c-0.6,0.2-0.8,0.6-0.6,1.2
			c0.5,1.8,1.8,3.2,3.3,4.2c2.6,1.9,5.4,3.6,8,5.4c0.2,0.1,0.3,0.3,0.5,0.3c1.1,0.6,1.7,0.4,2-0.8C697.3,44.8,697.4,44,697.5,43.4z
			 M735.8,44.6c0.9-4.7-1.8-8.6-7.4-10.9c-1.6-0.7-6.7,1.2-8.1,3c3,2.9,6.6,5,10.1,7.1c0.2,0.1,0.5,0.1,0.7,0.2
			C732.7,44.2,734.2,44.4,735.8,44.6z M692.5,51.9c-1.2-1.5-2.2-3-3.5-4.1c-2.8-2.2-5.7-4.3-8.6-6.4c-1-0.7-2-0.3-2.2,0.9
			c-0.2,1.1-0.3,2.2-0.1,3.3c0.4,3.2,2.1,5.6,5.2,7C686.3,54,689.3,53.7,692.5,51.9z M716.6,43.3c-0.5,4.2,1.6,7.9,5.3,9.5
			c3.2,1.4,7.8,0.7,9.7-1.5c-1.5-1.3-3-2.6-4.6-3.8c-0.9-0.7-1.9-1.3-3-1.9C721.8,44.3,719.5,42.8,716.6,43.3z"/>
	</g>
	<path class="st0" d="M674.3,43"/>
	<path class="st0" d="M677.1,57.1l21.3,1.3l41.1-1.3l-4-22.7c0,0-21-8.1-21.9-8.1s-24.7,4.5-25.7,4.3c-1-0.3-10.8,10.6-10.8,10.6
		L677.1,57.1L677.1,57.1z"/>
</g>
</svg>
