<svg width="134" height="40" viewBox="0 0 134 40" fill="none" xmlns="http://www.w3.org/2000/svg">
<path d="M24.481 8.29688H25.0962C26.6343 8.29688 27.6825 11.43 28.2407 17.6963V19.5762C33.2537 19.5762 35.7603 20.8294 35.7603 23.3359L33.8804 24.6006H27.6084L26.9761 30.8555V31.4878H24.481C23.6379 31.4878 23.2163 31.0719 23.2163 30.2402V28.9756C23.2163 28.5654 23.4271 28.3604 23.8486 28.3604L23.2163 27.0957C23.6379 22.0827 23.8486 18.3229 23.8486 15.8164H24.481C24.0594 15.2126 23.6379 12.9168 23.2163 8.9292L24.481 8.29688ZM10.6895 10.8091H11.3047C11.9085 10.8091 12.5352 11.4357 13.1846 12.689C13.1846 14.1473 12.1421 16.2323 10.0571 18.9438C10.0571 19.5363 12.9795 22.0485 18.8242 26.4805V27.0957C18.4141 27.9046 18.209 28.5312 18.209 28.9756C15.9759 28.9756 12.4212 26.8906 7.54492 22.7207L2.5376 28.3604C1.80843 27.9388 0.971029 27.728 0.0253906 27.728V26.4805C0.0253906 25.0107 1.48942 22.7093 4.41748 19.5762L10.6895 10.8091ZM61.9932 9.54443H63.2407C64.0838 9.54443 64.7104 10.7977 65.1206 13.3042C64.7104 21.6326 64.5054 27.278 64.5054 30.2402L63.873 32.7354H61.9932C61.3893 32.7354 60.7627 32.1087 60.1133 30.8555C60.5348 23.1536 60.7456 16.6766 60.7456 11.4243V10.8091C60.8709 9.96598 61.2868 9.54443 61.9932 9.54443ZM38.8022 11.4243L43.1772 12.0566H48.834L49.4492 15.1841V16.4487L46.9541 21.4561C50.7139 22.8346 52.5938 24.7145 52.5938 27.0957L51.3291 27.728C49.8024 27.728 47.9225 26.8906 45.6895 25.2158H45.0742C44.1172 25.2158 43.4849 26.264 43.1772 28.3604H41.2974C40.4657 28.3604 40.0498 27.9388 40.0498 27.0957V26.4805C40.0498 25.7285 41.7246 22.1738 45.0742 15.8164C40.4714 15.8164 38.1699 15.1898 38.1699 13.9365V12.689L38.8022 11.4243ZM85.0815 9.54443H85.7139C87.1038 9.54443 88.1463 12.6776 88.8413 18.9438H90.106C90.9263 18.9438 93.0112 18.528 96.3608 17.6963L97.6255 19.5762V20.8237C97.2039 22.0884 95.9507 22.7207 93.8657 22.7207H89.4736V26.4805L90.106 30.8555L88.8413 31.4878H87.5938C85.6569 31.4878 84.4036 24.3841 83.834 10.1768L85.0815 9.54443ZM77.562 12.0566C80.9002 12.0566 82.5693 15.4006 82.5693 22.0884C82.5693 25.4266 79.647 27.0957 73.8022 27.0957C73.8022 27.5173 72.9648 27.728 71.29 27.728H70.0425C68.3677 27.728 67.5303 23.1309 67.5303 13.9365C72.099 12.6833 75.4429 12.0566 77.562 12.0566ZM71.9224 18.3286V23.3359C75.7163 22.5042 77.807 22.0884 78.1943 22.0884V16.4487H77.562C73.8022 16.688 71.9224 17.3146 71.9224 18.3286ZM130.096 0.162109H131.361C133.024 2.56608 133.856 8.4165 133.856 17.7134V19.5933C133.856 20.425 133.44 20.8408 132.608 20.8408H130.729C129.897 15.0075 129.27 8.32536 128.849 0.794434L130.096 0.162109ZM123.209 2.04199H125.089C126.342 2.30404 126.969 3.97884 126.969 7.06641V15.8335C126.969 16.4259 126.342 17.0526 125.089 17.7134C123.836 17.2918 123.209 16.0386 123.209 13.9536V10.1938H117.569C116.738 10.1938 116.322 9.77799 116.322 8.94629V6.43408H123.209C123.209 5.48844 123.004 4.65104 122.594 3.92188C123.004 3.11296 123.209 2.48633 123.209 2.04199ZM102.547 2.67432H108.802L113.194 3.30664V7.06641C113.194 14.5745 112.568 18.3286 111.314 18.3286H110.682C110.078 18.3286 109.452 17.702 108.802 16.4487V13.9536L109.435 12.689H106.307L102.547 13.3213C100.873 12.6947 100.035 12.068 100.035 11.4414V10.1938C100.16 9.36214 100.576 8.94629 101.283 8.94629H108.187C109.019 8.94629 109.435 8.52474 109.435 7.68164V6.43408H104.427L101.283 5.80176V3.92188C101.419 3.09017 101.841 2.67432 102.547 2.67432ZM120.714 25.2329C120.714 26.1672 120.919 26.9989 121.329 27.728C120.919 28.4572 120.714 29.2946 120.714 30.2402C125.715 33.0088 128.216 34.6779 128.216 35.2476L126.969 37.1274C126.08 37.1274 123.368 36.085 118.834 34C118.834 34.4102 118.623 34.6152 118.202 34.6152L118.834 35.8799C117.854 38.3864 117.017 39.6396 116.322 39.6396C115.513 39.2181 114.886 39.0073 114.442 39.0073C114.442 36.0565 115.695 31.465 118.202 25.2329H120.714Z" fill="#05704A"/>
</svg>
