<?xml version="1.0" encoding="utf-8"?>
<!-- Generator: Adobe Illustrator 23.1.0, SVG Export Plug-In . SVG Version: 6.00 Build 0)  -->
<svg width="110px" height="85px" version="1.1" id="레이어_1" xmlns="http://www.w3.org/2000/svg" xmlns:xlink="http://www.w3.org/1999/xlink" x="0px"
	 y="0px" viewBox="0 0 110 85" style="enable-background:new 0 0 110 85;" xml:space="preserve">
<style type="text/css">
	.st0{fill:#F1CA5B;}
</style>
<g>
	<path class="st0" d="M101.8,5.9c0,0-1-2-1-2.8c0-0.8-0.1-1.2,0.7-1.6c0.8-0.4,1.6-0.4,1.8-0.1c0.2,0.2,0.6,0.9,0.8,1.6
		c0.3,0.7,0.8,1.9,0.8,1.9s2-0.9,2.4-0.9c0.4,0,1.3-0.1,1.7,0.8s0,1.6-0.5,1.9c-0.5,0.2-2.5,1.2-2.5,1.2s0.5,0.9,0.3,2
		c-0.1,1.1-0.5,2-2,1.7c-0.6-0.4-1.2-1.3-1.6-2.4c0,0-1.5,0.6-2,0.7c-0.5,0.1-1.5,0.1-1.8-0.9c-0.4-1,0.4-1.8,0.7-2
		C100.2,6.6,101.8,5.9,101.8,5.9z"/>
	<path class="st0" d="M2,34.6c0,0-1-1.8,0-2.5s1.9-0.1,2.2,0.2c0.4,0.3,0.6,0.6,0.6,0.6s1.1-1,1.7-1c0.6,0,1.7,0,2,0.9
		c0.4,0.9,0.2,1.3-0.3,1.8s-1.6,1.2-1.6,1.2s0.6,0.8,0.6,1.5c0,0.7,0.2,1.7-0.8,1.9c-1.1,0.3-1.9,0.1-2.5-0.6
		c-0.5-0.7-0.8-1.2-0.8-1.2s-1.9,0.8-2.2-0.2S1,36,1.5,35.3S2,34.6,2,34.6z"/>
	<path class="st0" d="M103,15.9c0,0-1.1-0.2-1.5,0.6c-0.4,0.8-0.8,2,0.2,2.5c1,0.5,2,0.1,2.4-0.8c0.3-0.9,0.2-2-0.9-2.3"/>
</g>
</svg>
