<svg fill="none" height="200" viewBox="0 0 200 200" width="200" xmlns="http://www.w3.org/2000/svg" xmlns:xlink="http://www.w3.org/1999/xlink"><clipPath id="a"><path d="m42 19h112v105h-112z"/></clipPath><g clip-path="url(#a)"><path d="m98.1066 123.849c-8.2715.782-16.4822-1.684-24.6929-3.819-6.1124-1.595-11.1605-5.354-16.0869-9.174-1.1556-.902-2.2503-1.865-3.4363-2.707-5.7475-3.97-9.0014-9.4443-10.4002-16.1816-1.3989-6.7073-1.8854-13.5047-1.1556-20.2722.4257-3.9401 1.7638-7.79 2.6457-11.7 1.9766-8.8127 5.5042-17.0539 10.0049-24.874 2.3111-4.0304 5.1088-7.6998 8.758-10.6775 1.2773-1.0527 2.4632-2.2257 3.6492-3.3987 2.3416-2.316 6.5078-2.7671 9.2143-.8722 2.5848 1.8046 4.6527 4.0002 5.7474 7.008 1.034 2.8874 1.8551 5.835 3.1627 8.6021 1.5205 3.3085 3.1322 6.6471 5.3217 9.5345 1.0644 1.4137 3.4668 1.8347 5.2914 2.6468.4865.2106 1.0947.1504 1.6421.2106 4.2579.391 5.9909-.8121 7.2069-4.9026.122-.4211.274-.8723.487-1.2633 3.436-6.1057 6.872-12.2415 10.4-18.3171 1.977-3.4288 4.987-4.9026 8.971-3.9702 1.034.2406 2.159.6617 2.98 1.3234 5.504 4.3612 10.127 9.4744 13.229 15.8808 2.372 4.9327 5.26 9.6849 7.389 14.7379 1.794 4.3312 3.224 8.9029 4.014 13.4747 1.308 7.399 2.068 14.9184 1.125 22.4377-1.155 9.1736-4.926 17.2039-11.768 23.6409-1.46 1.353-3.132 2.647-4.927 3.459-5.321 2.376-10.582 4.932-16.299 6.466-7.299 1.925-14.597 3.008-22.4734 2.707zm-35.7925-80.7874c.0304.5113.0304.9926.0608 1.5039.2433 2.7671 1.2772 3.8499 4.0749 4.0304 1.6118.0902 3.2539.1203 4.8352-.1805 3.9533-.7519 7.5721-3.0077 5.0785-8.7224-.669-1.534-.8819-3.2484-1.4901-4.8425-.4258-1.1429-.9731-2.316-1.7638-3.2183-1.6725-1.8648-3.4971-1.7144-5.1089.2707-.7602.9324-1.5205 1.8949-2.1287 2.9175-1.5205 2.5867-3.862 4.8726-3.5579 8.2412zm60.3639 2.7671c1.581-.1804 3.862-.3308 6.082-.7218 2.463-.4211 3.649-1.955 3.193-4.3913-.426-2.2859-1.125-4.5417-1.885-6.7674-.365-1.0527-1.004-2.1054-1.734-2.9777-2.402-2.9476-5.991-2.6468-7.42.782-1.247 2.9476-2.098 6.0456-2.919 9.1436-.882 3.3686.486 4.9627 4.683 4.9326zm-33.4815 26.1372c-.0912-.9323-.1217-1.6843-.2433-2.4362-.8819-5.2034-5.0176-7.3088-9.1534-9.3842-.2129-.0902-.517-.0902-.7602-.03-2.0375.5714-4.075 1.1128-6.082 1.7445-.7603.2406-.9123.6917-.6691 1.5038.6386 2.2558 2.1896 3.8499 3.9533 5.1433 3.1019 2.3159 6.3861 4.4213 9.5792 6.617.2129.1504.3953.3007.6082.421 1.338.752 2.0375.4813 2.3416-.9925.2432-.9023.3345-1.8347.4257-2.5867zm45.6755 1.5039c1.065-5.6846-2.159-10.4669-8.849-13.2641-1.946-.8121-7.967 1.4437-9.61 3.6394 3.528 3.5491 7.816 6.1357 12.043 8.7224.243.1504.578.1504.882.2105 1.824.2407 3.618.4512 5.534.6918zm-51.6359 8.933c-1.4901-1.8347-2.6152-3.6995-4.1965-5.0229-3.2843-2.7371-6.7815-5.2335-10.2482-7.76-1.186-.8722-2.4328-.3308-2.6153 1.1129-.1824 1.3234-.3041 2.7069-.152 4.0303.4561 3.9101 2.5544 6.8276 6.1732 8.4818 3.6796 1.7145 7.2376 1.3235 11.0388-.8421zm28.7679-10.5872c-.639 5.1131 1.855 9.6247 6.264 11.5497 3.863 1.6843 9.245.9023 11.617-1.7746-1.794-1.564-3.588-3.1882-5.443-4.662-1.095-.8722-2.281-1.6542-3.528-2.3159-2.737-1.5039-5.413-3.3086-8.91-2.7972z" fill="#000"/></g></svg>