<svg width="24" height="24" viewBox="0 0 24 24" fill="none" xmlns="http://www.w3.org/2000/svg">
<path d="M20.9999 12.2069C20.9999 11.6015 20.9463 11.0268 20.8543 10.4674H12.1953V13.9234H17.1532C16.9309 15.0575 16.2796 16.0153 15.3141 16.6667V18.9655H18.2719C20.0037 17.364 20.9999 15.0038 20.9999 12.2069Z" fill="#4285F4"/>
<path d="M12.1954 21.1954C14.6782 21.1954 16.7548 20.3678 18.272 18.9655L15.3142 16.6667C14.4866 17.2184 13.4368 17.5556 12.1954 17.5556C9.79695 17.5556 7.7663 15.9387 7.03833 13.7548H3.98853V16.1226C5.4981 19.1265 8.60155 21.1954 12.1954 21.1954Z" fill="#34A853"/>
<path d="M7.03831 13.7548C6.84674 13.2031 6.74712 12.613 6.74712 12C6.74712 11.387 6.8544 10.7969 7.03831 10.2452V7.8774H3.9885C3.36015 9.11877 3 10.5134 3 12C3 13.4866 3.36015 14.8812 3.9885 16.1226L7.03831 13.7548Z" fill="#FBBC05"/>
<path d="M12.1954 6.44445C13.5517 6.44445 14.7625 6.91188 15.7203 7.82376L18.341 5.20307C16.7548 3.71648 14.6782 2.8046 12.1954 2.8046C8.60155 2.8046 5.4981 4.87357 3.98853 7.8774L7.03833 10.2452C7.7663 8.06131 9.79695 6.44445 12.1954 6.44445Z" fill="#EA4335"/>
</svg>
