<svg width="158" height="158" viewBox="0 0 158 158" fill="none" xmlns="http://www.w3.org/2000/svg">
<g clip-path="url(#clip0_11786_4212)">
<path d="M76.6149 131.837C67.6787 132.686 58.8082 130.008 49.9377 127.689C43.3342 125.959 37.8804 121.877 32.5582 117.729C31.3097 116.75 30.127 115.705 28.8457 114.79C22.6363 110.48 19.121 104.537 17.6097 97.2218C16.0985 89.9396 15.5728 82.5595 16.3613 75.212C16.8213 70.9342 18.2668 66.7543 19.2196 62.5091C21.3551 52.9411 25.1661 43.9935 30.0284 35.5031C32.5253 31.1273 35.5478 27.1433 39.4903 23.9104C40.8701 22.7675 42.1514 21.4939 43.4327 20.2204C45.9624 17.7059 50.4634 17.2161 53.3874 19.2733C56.1799 21.2327 58.414 23.6165 59.5967 26.8821C60.7137 30.017 61.6008 33.2172 63.0135 36.2215C64.6562 39.8136 66.3974 43.4383 68.7629 46.5733C69.9128 48.1081 72.5082 48.5652 74.4794 49.4469C75.0051 49.6755 75.6621 49.6102 76.2535 49.6755C80.853 50.1 82.7257 48.7938 84.0398 44.3527C84.1712 43.8955 84.3355 43.4057 84.5655 42.9812C88.2779 36.3521 91.9904 29.6904 95.8014 23.094C97.9369 19.3713 101.189 17.7712 105.493 18.7835C106.61 19.0448 107.826 19.5019 108.713 20.2204C114.659 24.9554 119.653 30.5068 123.004 37.4624C125.567 42.8179 128.688 47.9774 130.988 53.4635C132.926 58.1659 134.47 63.1295 135.324 68.0932C136.737 76.1264 137.558 84.2902 136.54 92.4541C135.292 102.414 131.218 111.133 123.826 118.121C122.249 119.591 120.442 120.995 118.503 121.877C112.754 124.456 107.07 127.232 100.894 128.898C93.0089 130.987 85.124 132.163 76.6149 131.837ZM37.9462 44.1241C37.979 44.6792 37.979 45.2017 38.0119 45.7569C38.2747 48.7612 39.3917 49.9368 42.4142 50.1327C44.1555 50.2307 45.9296 50.2633 47.638 49.9368C51.909 49.1204 55.8185 46.6712 53.1245 40.4667C52.4018 38.8013 52.1718 36.9399 51.5147 35.2092C51.0548 33.9683 50.4634 32.6947 49.6092 31.7151C47.8022 29.6904 45.831 29.8537 44.0898 32.009C43.2684 33.0213 42.4471 34.0662 41.79 35.1765C40.1473 37.9849 37.6176 40.4667 37.9462 44.1241ZM103.161 47.1284C104.869 46.9325 107.333 46.7692 109.731 46.3447C112.393 45.8875 113.674 44.2221 113.181 41.577C112.721 39.0952 111.965 36.646 111.144 34.2295C110.75 33.0866 110.06 31.9436 109.271 30.9966C106.676 27.7964 102.799 28.123 101.255 31.8457C99.9081 35.0459 98.9882 38.4094 98.1012 41.7729C97.1484 45.4303 98.6268 47.1611 103.161 47.1284Z" fill="#C4C4C4"/>
</g>
<path d="M62.5117 74.8594V94.0339H66.4214V98.7339H62.5117V106.262H57.4789V98.7339H42.7549V94.0754C45.195 90.8866 47.5936 87.684 49.9505 84.4674C52.3075 81.2509 54.706 78.0482 57.1461 74.8594H62.5117ZM57.4789 94.117V84.4258C57.4789 84.2317 57.4789 83.8851 57.4789 83.386C57.5066 82.8869 57.5343 82.36 57.5621 81.8054L48.4116 94.117H57.4789Z" fill="white"/>
<path d="M90.6164 90.8312C90.6164 93.5763 90.3252 95.961 89.7429 97.9852C89.1606 99.9817 88.3426 101.645 87.2889 102.976C86.2629 104.28 85.0429 105.25 83.6287 105.888C82.2145 106.526 80.6756 106.845 79.0118 106.845C77.4036 106.845 75.8923 106.526 74.4782 105.888C73.0917 105.25 71.8717 104.28 70.818 102.976C69.792 101.645 68.9879 99.9817 68.4056 97.9852C67.8233 95.961 67.5321 93.5763 67.5321 90.8312C67.5321 88.0583 67.8233 85.6736 68.4056 83.6771C68.9879 81.6529 69.792 79.9892 70.818 78.6859C71.8717 77.355 73.0917 76.3706 74.4782 75.7328C75.8923 75.0951 77.4036 74.7762 79.0118 74.7762C80.6756 74.7762 82.2145 75.0951 83.6287 75.7328C85.0429 76.3706 86.2629 77.355 87.2889 78.6859C88.3426 79.9892 89.1606 81.6529 89.7429 83.6771C90.3252 85.6736 90.6164 88.0583 90.6164 90.8312ZM84.7933 90.8312C84.7933 88.6129 84.6269 86.7828 84.2942 85.3409C83.9892 83.8712 83.5732 82.7205 83.0464 81.8886C82.5195 81.029 81.8956 80.4329 81.1747 80.1001C80.4815 79.7396 79.7605 79.5594 79.0118 79.5594C78.2909 79.5594 77.5838 79.7396 76.8906 80.1001C76.2251 80.4329 75.6289 81.029 75.1021 81.8886C74.5752 82.7205 74.1454 83.8712 73.8127 85.3409C73.5077 86.7828 73.3552 88.6129 73.3552 90.8312C73.3552 93.0217 73.5077 94.838 73.8127 96.2799C74.1454 97.7218 74.5752 98.8725 75.1021 99.7321C75.6289 100.592 76.2251 101.188 76.8906 101.521C77.5838 101.853 78.2909 102.02 79.0118 102.02C79.7605 102.02 80.4815 101.853 81.1747 101.521C81.8956 101.188 82.5195 100.592 83.0464 99.7321C83.5732 98.8725 83.9892 97.7218 84.2942 96.2799C84.6269 94.838 84.7933 93.0217 84.7933 90.8312Z" fill="white"/>
<path d="M112.066 74.8594V94.0339H115.976V98.7339H112.066V106.262H107.033V98.7339H92.3093V94.0754C94.7495 90.8866 97.148 87.684 99.505 84.4674C101.862 81.2509 104.26 78.0482 106.701 74.8594H112.066ZM107.033 94.117V84.4258C107.033 84.2317 107.033 83.8851 107.033 83.386C107.061 82.8869 107.089 82.36 107.117 81.8054L97.966 94.117H107.033Z" fill="white"/>
<path d="M48.0572 54C47.8406 56 48.1222 60 50.9807 60C53.8393 60 54.229 56 53.9042 54" stroke="white" stroke-width="2" stroke-linecap="round"/>
<path d="M36.0572 65C35.8406 67 36.1222 71 38.9807 71C41.8393 71 42.229 67 41.9042 65" stroke="white" stroke-width="2" stroke-linecap="round"/>
<defs>
<clipPath id="clip0_11786_4212">
<rect width="121" height="114" fill="white" transform="translate(16 18)"/>
</clipPath>
</defs>
</svg>
