<svg fill="none" height="36" viewBox="0 0 36 36" width="36" xmlns="http://www.w3.org/2000/svg"><circle cx="18" cy="18" fill="#c4c4c4" r="18"/><g stroke="#fff" stroke-linecap="round" stroke-linejoin="round" stroke-width="1.5"><path d="m24.4167 9.75h-12.8334c-1.0125 0-1.8333.8208-1.8333 1.8333v12.8334c0 1.0125.8208 1.8333 1.8333 1.8333h12.8334c1.0125 0 1.8333-.8208 1.8333-1.8333v-12.8334c0-1.0125-.8208-1.8333-1.8333-1.8333z"/><path d="m14.7917 16.1667c.7594 0 1.375-.6157 1.375-1.375 0-.7594-.6156-1.375-1.375-1.375-.7593 0-1.375.6156-1.375 1.375 0 .7593.6157 1.375 1.375 1.375z"/><path d="m26.2499 20.75-4.5833-4.5833-10.0833 10.0833"/></g></svg>