<svg fill="none" height="44" viewBox="0 0 322 44" width="322" xmlns="http://www.w3.org/2000/svg"><rect fill="#ffed9f" height="44" rx="22" width="322"/><path d="m159.395 14.9121h-1.299v12.2774h1.299v-6.4668h1.968v-1.0665h-1.968zm-9.024 9.2285h.984c2.277.0069 3.904-.0547 5.825-.3965l-.164-1.0937c-1.75.3144-3.288.4033-5.346.4101v-5.9199h4.43v-1.0527h-5.729zm17.158-8.9687c-2.679-.0069-4.382.8681-4.375 2.3515-.007 1.4561 1.696 2.3174 4.375 2.3106 2.687.0068 4.368-.8545 4.375-2.3106-.007-1.4834-1.688-2.3584-4.375-2.3515zm-5.578 6.6582h11.17v-1.0528h-11.17zm1.34 5.1816h8.463v-4.0879h-8.463zm1.203-9.4883c-.007-.8476 1.149-1.333 3.035-1.3261 1.873-.0069 3.042.4785 3.035 1.3261.007.8135-1.162 1.292-3.035 1.2989-1.886-.0069-3.042-.4854-3.035-1.2989zm.082 8.4356v-1.9961h5.92v1.9961z" fill="#000"/></svg>