<svg width="322" height="44" viewBox="0 0 322 44" fill="none" xmlns="http://www.w3.org/2000/svg">
<rect width="322" height="44" rx="22" fill="#FFED9F"/>
<path d="M155.013 24.6055H150.022V22.459H153.933V21.3926H146.454V19.6016H153.646V15.7734H145.142V16.8398H152.36V18.5625H145.169V22.459H148.737V24.6055H143.802V25.6992H155.013V24.6055ZM165.608 16.1562H157.104V17.2227H164.323V17.4688C164.323 19.0137 164.323 20.8115 163.831 23.2656L165.157 23.3887C165.608 20.7705 165.608 19.0547 165.608 17.4688V16.1562ZM155.901 25.4258H167.071V24.3457H155.901V25.4258ZM178.159 14.9258H176.86V23.8262H178.159V14.9258ZM168.247 18.7812C168.254 20.5791 169.662 21.8301 171.515 21.8301C173.36 21.8301 174.769 20.5791 174.769 18.7812C174.769 17.0107 173.36 15.7529 171.515 15.7461C169.662 15.7529 168.254 17.0107 168.247 18.7812ZM169.519 18.7812C169.512 17.6533 170.373 16.8809 171.515 16.8809C172.636 16.8809 173.497 17.6533 173.497 18.7812C173.497 19.9365 172.636 20.6953 171.515 20.6953C170.373 20.6953 169.512 19.9365 169.519 18.7812ZM170.147 26.9023H178.528V25.8496H171.46V22.9238H170.147V26.9023Z" fill="black"/>
</svg>
