<svg width="120" height="34" viewBox="0 0 120 34" fill="none" xmlns="http://www.w3.org/2000/svg">
<rect x="0.5" y="0.5" width="119" height="33" rx="16.5" fill="white" stroke="#DBDBDB"/>
<path d="M46.9648 10.9258H45.666V14.2617H43.2939C43.0615 12.7305 41.7695 11.6914 40.1426 11.6914C38.2969 11.6914 36.9229 12.9492 36.9297 14.7402C36.9229 16.5244 38.2969 17.8027 40.1426 17.8027C41.7285 17.8027 43 16.7979 43.2734 15.3281H45.666V19.9219H46.9648V10.9258ZM38.1738 14.7402C38.167 13.5918 39.0146 12.833 40.1426 12.8262C41.2432 12.833 42.084 13.5918 42.084 14.7402C42.084 15.8887 41.2432 16.6748 40.1426 16.6816C39.0146 16.6748 38.167 15.8887 38.1738 14.7402ZM39.0078 22.9023H47.293V21.8496H40.3066V19.0059H39.0078V22.9023ZM55.8105 11.7188H49.1934V12.7441H50.3555V15.8271C49.8291 15.8271 49.3232 15.834 48.8516 15.834L49.002 16.873C51.1074 16.8799 53.9375 16.8457 56.3984 16.4766L56.3438 15.5195C55.7969 15.5811 55.2295 15.6357 54.6484 15.6699V12.7441H55.8105V11.7188ZM50.5605 18.8281H57.1914V19.8945H50.5879V23.0391H58.9004V22H51.8594V20.8379H58.4766V17.8027H50.5605V18.8281ZM51.6133 15.8066V12.7441H53.377V15.7451C52.7822 15.7725 52.1943 15.793 51.6133 15.8066ZM57.1777 17.2422H58.4766V14.5898H60.2539V13.5098H58.4766V10.9121H57.1777V17.2422ZM72.1621 20.6055H67.1719V18.459H71.082V17.3926H63.6035V15.6016H70.7949V11.7734H62.291V12.8398H69.5098V14.5625H62.3184V18.459H65.8867V20.6055H60.9512V21.6992H72.1621V20.6055ZM84.248 17.8711H73.0371V18.9512H77.9727V23.1621H79.2441V18.9512H84.248V17.8711ZM74.2539 14.0977C74.2607 15.7451 76.0244 16.791 78.6152 16.791C81.2061 16.791 82.9834 15.7451 82.9766 14.0977C82.9834 12.4297 81.2061 11.377 78.6152 11.377C76.0244 11.377 74.2607 12.4297 74.2539 14.0977ZM75.5938 14.0977C75.5869 13.0654 76.7969 12.4229 78.6152 12.416C80.4404 12.4229 81.6436 13.0654 81.6504 14.0977C81.6436 15.1162 80.4404 15.752 78.6152 15.752C76.7969 15.752 75.5869 15.1162 75.5938 14.0977Z" fill="#767676"/>
</svg>
