<svg width="120" height="34" viewBox="0 0 120 34" fill="none" xmlns="http://www.w3.org/2000/svg">
<rect width="120" height="34" rx="17" fill="#05704A"/>
<path d="M49.7607 11.7188H43.1436V12.7441H44.3057V15.8271C43.7793 15.8271 43.2734 15.834 42.8018 15.834L42.9521 16.873C45.0576 16.8799 47.8877 16.8457 50.3486 16.4766L50.2939 15.5195C49.7471 15.5811 49.1797 15.6357 48.5986 15.6699V12.7441H49.7607V11.7188ZM44.5107 18.8281H51.1416V19.8945H44.5381V23.0391H52.8506V22H45.8096V20.8379H52.4268V17.8027H44.5107V18.8281ZM45.5635 15.8066V12.7441H47.3271V15.7451C46.7324 15.7725 46.1445 15.793 45.5635 15.8066ZM51.1279 17.2422H52.4268V14.5898H54.2041V13.5098H52.4268V10.9121H51.1279V17.2422ZM66.1123 20.6055H61.1221V18.459H65.0322V17.3926H57.5537V15.6016H64.7451V11.7734H56.2412V12.8398H63.46V14.5625H56.2686V18.459H59.8369V20.6055H54.9014V21.6992H66.1123V20.6055ZM78.1982 17.8711H66.9873V18.9512H71.9229V23.1621H73.1943V18.9512H78.1982V17.8711ZM68.2041 14.0977C68.2109 15.7451 69.9746 16.791 72.5654 16.791C75.1562 16.791 76.9336 15.7451 76.9268 14.0977C76.9336 12.4297 75.1562 11.377 72.5654 11.377C69.9746 11.377 68.2109 12.4297 68.2041 14.0977ZM69.5439 14.0977C69.5371 13.0654 70.7471 12.4229 72.5654 12.416C74.3906 12.4229 75.5938 13.0654 75.6006 14.0977C75.5938 15.1162 74.3906 15.752 72.5654 15.752C70.7471 15.752 69.5371 15.1162 69.5439 14.0977Z" fill="white"/>
</svg>
