<svg fill="none" height="24" viewBox="0 0 24 24" width="24" xmlns="http://www.w3.org/2000/svg"><path d="m21 11.5c.0034 1.3199-.3049 2.6219-.9 3.8-.7056 1.4117-1.7902 2.5992-3.1326 3.4293-1.3423.8301-2.8892 1.2701-4.4674 1.2707-1.3199.0034-2.62188-.3049-3.8-.9l-5.7 1.9 1.9-5.7c-.59507-1.1781-.90344-2.4801-.9-3.8.00061-1.57824.44061-3.12515 1.27072-4.46745s2.01753-2.42698 3.42928-3.13255c1.17812-.59507 2.4801-.90344 3.8-.9h.5c2.0843.11499 4.053.99476 5.5291 2.47086 1.4761 1.47609 2.3559 3.44479 2.4709 5.52914z" fill="#f2c94c"/></svg>