<svg width="90" height="32" viewBox="0 0 90 32" fill="none" xmlns="http://www.w3.org/2000/svg">
<rect width="90" height="32" rx="16" fill="#FFED9F"/>
<path d="M43.0781 9.91211H41.7793V14.3145H39.25V15.3809H41.7793V22.1895H43.0781V9.91211ZM32.7148 18.7715L33.5078 19.7832C34.9229 19.0586 36.0371 17.5342 36.584 15.7568C37.1309 17.4248 38.2178 18.8535 39.6328 19.5371L40.4121 18.498C38.5322 17.6641 37.2266 15.4287 37.2266 13.3574V12.209H39.9473V11.1426H33.207V12.209H35.9141V13.3574C35.9072 15.5586 34.5879 17.876 32.7148 18.7715ZM49.2305 12.168V11.8398H51.8691V10.7871H45.2383V11.8398H47.9316V12.1816C47.9248 13.8838 46.7695 15.4629 44.8555 16.0918L45.5254 17.1309C46.9951 16.6182 48.0684 15.5586 48.6016 14.2188C49.1416 15.3809 50.1602 16.3037 51.5547 16.748L52.1699 15.7363C50.3105 15.1484 49.2236 13.7266 49.2305 12.168ZM46.5098 19.8379C46.5098 21.2939 48.0752 22.1416 50.625 22.1348C53.1475 22.1416 54.6855 21.2939 54.6855 19.8379C54.6855 18.4023 53.1475 17.5615 50.625 17.5684C48.0752 17.5615 46.5098 18.4023 46.5098 19.8379ZM47.8086 19.8379C47.8018 19.0381 48.8545 18.5869 50.625 18.5938C52.3818 18.5869 53.4209 19.0381 53.4141 19.8379C53.4209 20.6582 52.3818 21.1162 50.625 21.1094C48.8545 21.1162 47.8018 20.6582 47.8086 19.8379ZM53.2773 17.2676H54.5762V14.0137H56.3535V12.9473H54.5762V9.91211H53.2773V17.2676Z" fill="black"/>
</svg>
