<svg width="56" height="28" viewBox="0 0 56 28" fill="none" xmlns="http://www.w3.org/2000/svg">
<rect x="0.5" y="0.5" width="55" height="27" rx="13.5" fill="white" stroke="#DBDBDB"/>
<path d="M22.0703 10.5234H24.3203V9.64453H22.0703V8.51953H20.957V9.64453H18.6953V10.5234H20.957C20.9512 11.5723 20.0137 12.5098 18.4609 12.8438L18.9297 13.7109C20.1719 13.4238 21.0742 12.7617 21.5254 11.8945C21.9883 12.6914 22.8789 13.2949 24.0859 13.5703L24.543 12.7031C23.0078 12.3809 22.0645 11.5137 22.0703 10.5234ZM18.0039 14.3555L18.1562 15.2812C19 15.2812 19.9609 15.2754 20.9688 15.2344V18.6797H22.082V15.1758C23.0488 15.1172 24.0391 15.0176 25 14.8594L24.918 14.0508C22.6328 14.3379 19.9961 14.3555 18.0039 14.3555ZM25.6445 18.9961H26.7461V8.50781H25.6445V18.9961ZM37.9961 16.7461H33.6953V14.25H32.5938V16.7461H28.3867V17.6602H37.9961V16.7461ZM28.7148 13.5234L29.207 14.4375C30.9004 14.1035 32.4473 13.043 33.1387 11.6133C33.8301 13.0488 35.3887 14.1035 37.0938 14.4375L37.5742 13.5234C35.5469 13.1836 33.7188 11.625 33.7188 9.96094V9.16406H32.5469V9.96094C32.541 11.625 30.7363 13.1836 28.7148 13.5234Z" fill="#767676"/>
</svg>
