<svg width="56" height="28" viewBox="0 0 56 28" fill="none" xmlns="http://www.w3.org/2000/svg">
<rect width="56" height="28" rx="14" fill="#05704A"/>
<path d="M18.7949 9.1875H13.123V10.0664H14.1191V12.709C13.668 12.709 13.2344 12.7148 12.8301 12.7148L12.959 13.6055C14.7637 13.6113 17.1895 13.582 19.2988 13.2656L19.252 12.4453C18.7832 12.498 18.2969 12.5449 17.7988 12.5742V10.0664H18.7949V9.1875ZM14.2949 15.2812H19.9785V16.1953H14.3184V18.8906H21.4434V18H15.4082V17.0039H21.0801V14.4023H14.2949V15.2812ZM15.1973 12.6914V10.0664H16.709V12.6387C16.1992 12.6621 15.6953 12.6797 15.1973 12.6914ZM19.9668 13.9219H21.0801V11.6484H22.6035V10.7227H21.0801V8.49609H19.9668V13.9219ZM32.8105 16.8047H28.5332V14.9648H31.8848V14.0508H25.4746V12.5156H31.6387V9.23438H24.3496V10.1484H30.5371V11.625H24.373V14.9648H27.4316V16.8047H23.2012V17.7422H32.8105V16.8047ZM43.1699 14.4609H33.5605V15.3867H37.791V18.9961H38.8809V15.3867H43.1699V14.4609ZM34.6035 11.2266C34.6094 12.6387 36.1211 13.5352 38.3418 13.5352C40.5625 13.5352 42.0859 12.6387 42.0801 11.2266C42.0859 9.79688 40.5625 8.89453 38.3418 8.89453C36.1211 8.89453 34.6094 9.79688 34.6035 11.2266ZM35.752 11.2266C35.7461 10.3418 36.7832 9.79102 38.3418 9.78516C39.9062 9.79102 40.9375 10.3418 40.9434 11.2266C40.9375 12.0996 39.9062 12.6445 38.3418 12.6445C36.7832 12.6445 35.7461 12.0996 35.752 11.2266Z" fill="white"/>
</svg>
