<svg width="18" height="18" viewBox="0 0 18 18" fill="none" xmlns="http://www.w3.org/2000/svg">
<path d="M9 9.75001C9.41421 9.75001 9.75 9.41423 9.75 9.00001C9.75 8.5858 9.41421 8.25002 9 8.25002C8.58579 8.25002 8.25 8.5858 8.25 9.00001C8.25 9.41423 8.58579 9.75001 9 9.75001Z" fill="#C4C4C4" stroke="#C4C4C4" stroke-linecap="round" stroke-linejoin="round"/>
<path d="M9 4.49998C9.41421 4.49998 9.75 4.1642 9.75 3.74998C9.75 3.33577 9.41421 2.99998 9 2.99998C8.58579 2.99998 8.25 3.33577 8.25 3.74998C8.25 4.1642 8.58579 4.49998 9 4.49998Z" fill="#C4C4C4" stroke="#C4C4C4" stroke-linecap="round" stroke-linejoin="round"/>
<path d="M9 15C9.41421 15 9.75 14.6642 9.75 14.25C9.75 13.8358 9.41421 13.5 9 13.5C8.58579 13.5 8.25 13.8358 8.25 14.25C8.25 14.6642 8.58579 15 9 15Z" fill="#C4C4C4" stroke="#C4C4C4" stroke-linecap="round" stroke-linejoin="round"/>
</svg>
