<svg width="104" height="104" viewBox="0 0 104 104" fill="none" xmlns="http://www.w3.org/2000/svg">
<path d="M52.0987 98.8674C44.7132 99.5674 37.382 97.3596 30.0509 95.4479C24.5932 94.0209 20.0859 90.6553 15.6872 87.2359C14.6554 86.4281 13.6779 85.5666 12.619 84.8127C7.48715 81.2586 4.58183 76.3583 3.33282 70.3272C2.0838 64.3229 1.64936 58.238 2.30102 52.1799C2.68116 48.6528 3.87587 45.2064 4.66329 41.7062C6.4282 33.8172 9.57789 26.4399 13.5965 19.4394C15.66 15.8315 18.1581 12.5467 21.4164 9.88115C22.5568 8.93879 23.6157 7.88872 24.6747 6.83866C26.7654 4.76545 30.4853 4.36158 32.9019 6.05784C35.2098 7.67332 37.0562 9.63883 38.0337 12.3313C38.9569 14.9161 39.69 17.5547 40.8576 20.0318C42.2152 22.9935 43.6543 25.9821 45.6092 28.5669C46.5596 29.8324 48.7046 30.2093 50.3338 30.9363C50.7682 31.1248 51.3113 31.0709 51.8 31.1248C55.6014 31.4748 57.1491 30.3978 58.2352 26.736C58.3438 26.3591 58.4795 25.9552 58.6696 25.6052C61.7378 20.1395 64.806 14.6468 67.9557 9.20803C69.7206 6.13861 72.4088 4.8193 75.9657 5.65397C76.8889 5.86937 77.8936 6.24631 78.6267 6.83866C83.5413 10.7427 87.6684 15.3199 90.438 21.0549C92.5559 25.4706 95.1354 29.7247 97.0361 34.248C98.6381 38.1252 99.9142 42.2177 100.62 46.3103C101.788 52.9338 102.467 59.665 101.625 66.3962C100.593 74.6082 97.2261 81.7971 91.1168 87.559C89.8135 88.7706 88.3201 89.9284 86.7181 90.6553C81.9664 92.7824 77.2691 95.071 72.1644 96.4441C65.6478 98.1673 59.1312 99.1366 52.0987 98.8674ZM20.1402 26.5476C20.1674 27.0053 20.1674 27.4361 20.1945 27.8938C20.4117 30.3709 21.3349 31.3402 23.8329 31.5017C25.272 31.5825 26.7383 31.6094 28.1502 31.3402C31.68 30.667 34.9112 28.6477 32.6847 23.532C32.0873 22.1588 31.8972 20.6241 31.3542 19.1971C30.9741 18.174 30.4853 17.1239 29.7793 16.3162C28.286 14.6468 26.6568 14.7815 25.2177 16.5585C24.5389 17.3932 23.8601 18.2547 23.3171 19.1702C21.9594 21.4857 19.8687 23.532 20.1402 26.5476ZM74.0379 29.0246C75.4498 28.8631 77.4863 28.7285 79.4684 28.3784C81.6677 28.0015 82.7267 26.6283 82.3194 24.4474C81.9393 22.4011 81.3148 20.3818 80.636 18.3894C80.3101 17.447 79.7399 16.5046 79.0883 15.7238C76.9432 13.0852 73.7392 13.3544 72.4631 16.4239C71.3498 19.0625 70.5895 21.8357 69.8564 24.609C69.069 27.6245 70.2908 29.0516 74.0379 29.0246ZM44.143 52.4222C44.0616 51.5876 44.0344 50.9144 43.9258 50.2413C43.1384 45.5833 39.4456 43.6986 35.7529 41.8408C35.5628 41.76 35.2913 41.76 35.0741 41.8139C33.2549 42.3254 31.4356 42.8101 29.6436 43.3755C28.9648 43.5909 28.829 43.9948 29.0462 44.7217C29.6164 46.7411 31.0012 48.1681 32.576 49.3259C35.3456 51.3991 38.2781 53.2838 41.1291 55.2493C41.3191 55.3839 41.4821 55.5186 41.6721 55.6263C42.8668 56.2994 43.4913 56.0571 43.7629 54.7377C43.9801 53.93 44.0616 53.0953 44.143 52.4222ZM84.926 53.7685C85.8764 48.6797 82.9982 44.3987 77.0247 41.8946C75.2869 41.1677 69.9107 43.187 68.4445 45.1525C71.5942 48.3297 75.4227 50.6452 79.1969 52.9607C79.4141 53.0953 79.7128 53.0953 79.9843 53.1492C81.6134 53.3646 83.2154 53.5531 84.926 53.7685ZM38.8211 61.7651C37.4907 60.1227 36.486 58.4534 35.0741 57.2687C32.1416 54.8185 29.0191 52.5838 25.9237 50.3221C24.8647 49.5413 23.7515 50.0259 23.5886 51.3183C23.4257 52.503 23.3171 53.7415 23.4528 54.9262C23.8601 58.4264 25.7336 61.0381 28.9648 62.519C32.2502 64.0537 35.4271 63.7037 38.8211 61.7651ZM64.5074 52.2876C63.9372 56.8648 66.1637 60.9035 70.1008 62.6267C73.5492 64.1345 78.3551 63.4344 80.473 61.0381C78.871 59.6381 77.269 58.1841 75.6127 56.8648C74.6353 56.084 73.5763 55.3839 72.4631 54.7916C70.0193 53.4454 67.6299 51.8299 64.5074 52.2876Z" fill="black"/>
<path d="M52.0987 98.8674C44.7132 99.5674 37.382 97.3596 30.0509 95.4479C24.5932 94.0209 20.0859 90.6553 15.6872 87.2359C14.6554 86.4281 13.6779 85.5666 12.619 84.8127C7.48715 81.2586 4.58183 76.3583 3.33282 70.3272C2.0838 64.3229 1.64936 58.238 2.30102 52.1799C2.68116 48.6528 3.87587 45.2064 4.66329 41.7062C6.4282 33.8172 9.57789 26.4399 13.5965 19.4394C15.66 15.8315 18.1581 12.5467 21.4164 9.88115C22.5568 8.93879 23.6157 7.88872 24.6747 6.83866C26.7654 4.76545 30.4853 4.36158 32.9019 6.05784C35.2098 7.67332 37.0562 9.63883 38.0337 12.3313C38.9569 14.9161 39.69 17.5547 40.8576 20.0318C42.2152 22.9935 43.6543 25.9821 45.6092 28.5669C46.5596 29.8324 48.7046 30.2093 50.3338 30.9363C50.7682 31.1248 51.3113 31.0709 51.8 31.1248C55.6014 31.4748 57.1491 30.3978 58.2352 26.736C58.3438 26.3591 58.4795 25.9552 58.6696 25.6052C61.7378 20.1395 64.806 14.6468 67.9557 9.20803C69.7206 6.13861 72.4088 4.8193 75.9657 5.65397C76.8889 5.86937 77.8936 6.24631 78.6267 6.83866C83.5413 10.7427 87.6684 15.3199 90.438 21.0549C92.5559 25.4706 95.1354 29.7247 97.0361 34.248C98.6381 38.1252 99.9142 42.2177 100.62 46.3103C101.788 52.9338 102.467 59.665 101.625 66.3962C100.593 74.6082 97.2261 81.7971 91.1168 87.559C89.8135 88.7706 88.3201 89.9284 86.7181 90.6553C81.9664 92.7824 77.2691 95.071 72.1644 96.4441C65.6478 98.1673 59.1312 99.1366 52.0987 98.8674ZM20.1402 26.5476C20.1674 27.0053 20.1674 27.4361 20.1945 27.8938C20.4117 30.3709 21.3349 31.3402 23.8329 31.5017C25.272 31.5825 26.7383 31.6094 28.1502 31.3402C31.68 30.667 34.9112 28.6477 32.6847 23.532C32.0873 22.1588 31.8972 20.6241 31.3542 19.1971C30.9741 18.174 30.4853 17.1239 29.7793 16.3162C28.286 14.6468 26.6568 14.7815 25.2177 16.5585C24.5389 17.3932 23.8601 18.2547 23.3171 19.1702C21.9594 21.4857 19.8687 23.532 20.1402 26.5476ZM74.0379 29.0246C75.4498 28.8631 77.4863 28.7285 79.4684 28.3784C81.6677 28.0015 82.7267 26.6283 82.3194 24.4474C81.9393 22.4011 81.3148 20.3818 80.636 18.3894C80.3101 17.447 79.7399 16.5046 79.0883 15.7238C76.9432 13.0852 73.7392 13.3544 72.4631 16.4239C71.3498 19.0625 70.5895 21.8357 69.8564 24.609C69.069 27.6245 70.2908 29.0516 74.0379 29.0246ZM44.143 52.4222C44.0616 51.5876 44.0344 50.9144 43.9258 50.2413C43.1384 45.5833 39.4456 43.6986 35.7529 41.8408C35.5628 41.76 35.2913 41.76 35.0741 41.8139C33.2549 42.3254 31.4356 42.8101 29.6436 43.3755C28.9648 43.5909 28.829 43.9948 29.0462 44.7217C29.6164 46.7411 31.0012 48.1681 32.576 49.3259C35.3456 51.3991 38.2781 53.2838 41.1291 55.2493C41.3191 55.3839 41.4821 55.5186 41.6721 55.6263C42.8668 56.2994 43.4913 56.0571 43.7629 54.7377C43.9801 53.93 44.0616 53.0953 44.143 52.4222ZM84.926 53.7685C85.8764 48.6797 82.9982 44.3987 77.0247 41.8946C75.2869 41.1677 69.9107 43.187 68.4445 45.1525C71.5942 48.3297 75.4227 50.6452 79.1969 52.9607C79.4141 53.0953 79.7128 53.0953 79.9843 53.1492C81.6134 53.3646 83.2154 53.5531 84.926 53.7685ZM38.8211 61.7651C37.4907 60.1227 36.486 58.4534 35.0741 57.2687C32.1416 54.8185 29.0191 52.5838 25.9237 50.3221C24.8647 49.5413 23.7515 50.0259 23.5886 51.3183C23.4257 52.503 23.3171 53.7415 23.4528 54.9262C23.8601 58.4264 25.7336 61.0381 28.9648 62.519C32.2502 64.0537 35.4271 63.7037 38.8211 61.7651ZM64.5074 52.2876C63.9372 56.8648 66.1637 60.9035 70.1008 62.6267C73.5492 64.1345 78.3551 63.4344 80.473 61.0381C78.871 59.6381 77.269 58.1841 75.6127 56.8648C74.6353 56.084 73.5763 55.3839 72.4631 54.7916C70.0193 53.4454 67.6299 51.8299 64.5074 52.2876Z" fill="black"/>
</svg>
