<svg width="100" height="100" viewBox="0 0 100 100" fill="none" xmlns="http://www.w3.org/2000/svg">
<path d="M50.077 86.8984C44.3163 87.4346 38.598 85.7435 32.8797 84.2793C28.6227 83.1862 25.107 80.6083 21.676 77.9892C20.8712 77.3705 20.1088 76.7106 19.2828 76.1331C15.28 73.4108 13.0138 69.6574 12.0396 65.0378C11.0654 60.4389 10.7265 55.778 11.2348 51.1378C11.5313 48.4362 12.4632 45.7964 13.0774 43.1154C14.454 37.0728 16.9108 31.422 20.0452 26.06C21.6548 23.2965 23.6033 20.7805 26.1448 18.7388C27.0343 18.0169 27.8603 17.2126 28.6862 16.4083C30.317 14.8203 33.2185 14.511 35.1035 15.8103C36.9037 17.0477 38.3438 18.5531 39.1063 20.6155C39.8264 22.5953 40.3982 24.6164 41.3089 26.5137C42.3678 28.7823 43.4903 31.0714 45.0152 33.0513C45.7565 34.0205 47.4296 34.3093 48.7003 34.8661C49.0392 35.0105 49.4628 34.9692 49.844 35.0105C52.8091 35.2786 54.0163 34.4536 54.8634 31.6489C54.9481 31.3601 55.054 31.0508 55.2023 30.7827C57.5955 26.5962 59.9887 22.3891 62.4455 18.2232C63.8221 15.8721 65.9188 14.8616 68.6933 15.5009C69.4133 15.6659 70.197 15.9546 70.7688 16.4083C74.6022 19.3987 77.8214 22.9046 79.9816 27.2974C81.6336 30.6796 83.6456 33.938 85.1281 37.4027C86.3777 40.3725 87.3731 43.5072 87.9237 46.6419C88.8344 51.7152 89.3639 56.871 88.7074 62.0268C87.9026 68.3169 85.2764 73.8233 80.5111 78.2367C79.4945 79.1647 78.3297 80.0515 77.0801 80.6083C73.3738 82.2376 69.7099 83.9905 65.7282 85.0423C60.6453 86.3622 55.5623 87.1046 50.077 86.8984ZM25.1494 31.5045C25.1705 31.8551 25.1705 32.1851 25.1917 32.5357C25.3612 34.433 26.0812 35.1754 28.0297 35.2992C29.1522 35.3611 30.2958 35.3817 31.3972 35.1754C34.1504 34.6599 36.6707 33.1131 34.934 29.1947C34.4681 28.1429 34.3198 26.9674 33.8963 25.8744C33.5998 25.0907 33.2185 24.2864 32.6679 23.6677C31.503 22.3891 30.2323 22.4922 29.1098 23.8533C28.5804 24.4926 28.0509 25.1526 27.6273 25.8538C26.5684 27.6274 24.9376 29.1947 25.1494 31.5045ZM67.1896 33.4018C68.2909 33.2781 69.8793 33.175 71.4253 32.9069C73.1408 32.6182 73.9668 31.5664 73.6491 29.8959C73.3526 28.3285 72.8655 26.7818 72.336 25.2557C72.0819 24.5339 71.6371 23.8121 71.1288 23.214C69.4557 21.1929 66.9566 21.3991 65.9612 23.7502C65.0928 25.7713 64.4998 27.8955 63.928 30.0196C63.3138 32.3294 64.2669 33.4225 67.1896 33.4018ZM43.8715 51.3234C43.808 50.6841 43.7868 50.1685 43.7021 49.6529C43.0879 46.0851 40.2076 44.6415 37.3273 43.2185C37.179 43.1566 36.9672 43.1566 36.7978 43.1979C35.3788 43.5897 33.9598 43.9609 32.562 44.394C32.0325 44.559 31.9266 44.8683 32.0961 45.4252C32.5408 46.9719 33.6209 48.0649 34.8493 48.9517C37.0096 50.5397 39.2969 51.9833 41.5207 53.4888C41.6689 53.592 41.796 53.6951 41.9443 53.7776C42.8761 54.2931 43.3633 54.1075 43.575 53.097C43.7445 52.4783 43.808 51.839 43.8715 51.3234ZM75.6823 52.3546C76.4236 48.4568 74.1786 45.1777 69.5192 43.2597C68.1638 42.7029 63.9704 44.2496 62.8267 45.7551C65.2835 48.1887 68.2697 49.9623 71.2136 51.7359C71.383 51.839 71.616 51.839 71.8277 51.8802C73.0985 52.0452 74.348 52.1896 75.6823 52.3546ZM39.7205 58.4796C38.6827 57.2216 37.8991 55.943 36.7978 55.0356C34.5105 53.1589 32.0749 51.4471 29.6605 49.7148C28.8345 49.1167 27.9662 49.4879 27.8391 50.4779C27.712 51.3853 27.6273 52.3339 27.7332 53.2414C28.0509 55.9224 29.5122 57.9228 32.0325 59.0571C34.5952 60.2326 37.0731 59.9645 39.7205 58.4796ZM59.7557 51.2203C59.311 54.7262 61.0477 57.8197 64.1186 59.1396C66.8083 60.2945 70.557 59.7583 72.209 57.9228C70.9594 56.8504 69.7099 55.7368 68.4179 54.7262C67.6555 54.1282 66.8295 53.592 65.9612 53.1382C64.0551 52.1071 62.1913 50.8697 59.7557 51.2203Z" fill="white"/>
</svg>
