<svg width="24" height="24" viewBox="0 0 24 24" fill="none" xmlns="http://www.w3.org/2000/svg">
<path d="M12.0197 21.9718C10.5426 22.1207 9.07641 21.651 7.61017 21.2442C6.51864 20.9406 5.61718 20.2245 4.73744 19.497C4.53108 19.3251 4.33558 19.1418 4.12379 18.9814C3.09743 18.2252 2.51637 17.1826 2.26656 15.8994C2.01676 14.6219 1.92987 13.3272 2.0602 12.0383C2.13623 11.2878 2.37517 10.5546 2.53266 9.80982C2.88564 8.13133 3.51558 6.56167 4.31929 5.07222C4.73201 4.30458 5.23162 3.60568 5.88328 3.03854C6.11136 2.83804 6.32315 2.61462 6.53493 2.3912C6.95308 1.9501 7.69706 1.86417 8.18038 2.22507C8.64197 2.56879 9.01124 2.98698 9.20674 3.55985C9.39138 4.1098 9.538 4.67121 9.77151 5.19825C10.043 5.8284 10.3309 6.46428 10.7218 7.01424C10.9119 7.28348 11.3409 7.36369 11.6668 7.51836C11.7536 7.55846 11.8623 7.547 11.96 7.55846C12.7203 7.63293 13.0298 7.40379 13.247 6.62469C13.2688 6.54449 13.2959 6.45856 13.3339 6.38408C13.9476 5.22116 14.5612 4.05252 15.1911 2.89533C15.5441 2.24226 16.0817 1.96155 16.7931 2.13914C16.9778 2.18497 17.1787 2.26517 17.3253 2.3912C18.3083 3.22186 19.1337 4.19573 19.6876 5.41594C20.1112 6.35544 20.6271 7.26057 21.0072 8.22298C21.3276 9.04791 21.5828 9.91867 21.724 10.7894C21.9575 12.1987 22.0933 13.6308 21.925 15.063C21.7186 16.8103 21.0452 18.3398 19.8234 19.5657C19.5627 19.8235 19.264 20.0699 18.9436 20.2245C17.9933 20.6771 17.0538 21.164 16.0329 21.4562C14.7296 21.8228 13.4262 22.0291 12.0197 21.9718ZM5.62804 6.58459C5.63347 6.68197 5.63347 6.77363 5.6389 6.87102C5.68235 7.39806 5.86698 7.60429 6.36659 7.63866C6.65441 7.65585 6.94765 7.66158 7.23004 7.60429C7.936 7.46107 8.58223 7.03142 8.13693 5.94298C8.01746 5.65081 7.97945 5.32428 7.87084 5.02066C7.79481 4.80297 7.69706 4.57955 7.55587 4.40769C7.25719 4.05252 6.93136 4.08116 6.64354 4.45925C6.50778 4.63684 6.37202 4.82016 6.26341 5.01493C5.99189 5.5076 5.57374 5.94298 5.62804 6.58459ZM16.4076 7.11162C16.69 7.07725 17.0973 7.04861 17.4937 6.97414C17.9335 6.89393 18.1453 6.60177 18.0639 6.13775C17.9879 5.70237 17.863 5.27272 17.7272 4.8488C17.662 4.6483 17.548 4.44779 17.4177 4.28166C16.9886 3.72025 16.3478 3.77754 16.0926 4.43061C15.87 4.99202 15.7179 5.58207 15.5713 6.17212C15.4138 6.81373 15.6582 7.11735 16.4076 7.11162ZM10.4286 12.0898C10.4123 11.9122 10.4069 11.769 10.3852 11.6258C10.2277 10.6348 9.48913 10.2337 8.75058 9.83847C8.71256 9.82128 8.65826 9.82128 8.61482 9.83274C8.25097 9.94158 7.88713 10.0447 7.52872 10.165C7.39295 10.2108 7.3658 10.2968 7.40925 10.4514C7.52329 10.8811 7.80024 11.1847 8.11521 11.431C8.66912 11.8721 9.25561 12.2732 9.82582 12.6913C9.86383 12.72 9.89641 12.7486 9.93443 12.7715C10.1734 12.9148 10.2983 12.8632 10.3526 12.5825C10.396 12.4106 10.4123 12.2331 10.4286 12.0898ZM18.5852 12.3763C18.7753 11.2935 18.1996 10.3827 17.0049 9.84993C16.6574 9.69525 15.5821 10.1249 15.2889 10.5431C15.9188 11.2191 16.6845 11.7117 17.4394 12.2044C17.4828 12.2331 17.5426 12.2331 17.5969 12.2445C17.9227 12.2903 18.2431 12.3304 18.5852 12.3763ZM9.36422 14.0777C9.09813 13.7282 8.8972 13.3731 8.61482 13.121C8.02832 12.5997 7.40381 12.1242 6.78474 11.643C6.57295 11.4769 6.3503 11.58 6.31772 11.855C6.28513 12.107 6.26341 12.3705 6.29056 12.6226C6.37202 13.3673 6.74672 13.923 7.39295 14.2381C8.05004 14.5646 8.68541 14.4901 9.36422 14.0777ZM14.5015 12.0612C14.3874 13.0351 14.8327 13.8944 15.6202 14.261C16.3098 14.5818 17.271 14.4329 17.6946 13.923C17.3742 13.6251 17.0538 13.3158 16.7225 13.0351C16.5271 12.8689 16.3153 12.72 16.0926 12.594C15.6039 12.3075 15.126 11.9638 14.5015 12.0612Z" fill="#05704A"/>
</svg>
