<svg width="24" height="24" viewBox="0 0 24 24" fill="none" xmlns="http://www.w3.org/2000/svg">
<g clip-path="url(#clip0_40347_1989)">
<path d="M13.1289 2.04493C13.9737 2.06418 14.8113 2.07702 15.6562 2.09628C16.3845 2.11553 17.1201 2.12195 17.8485 2.21181C18.2126 2.25674 18.5695 2.31451 18.9264 2.38511C19.1376 2.42362 19.3488 2.4878 19.5528 2.55841C20.3685 2.84724 20.8565 3.37997 21.0386 4.13736C21.1114 4.45186 21.1187 4.77279 21.1332 5.08729C21.1332 5.19641 21.1405 5.30552 21.1332 5.41463C21.126 6.76893 21.2352 8.11682 21.4464 9.45828C21.5775 10.2863 21.7159 11.1078 21.8179 11.9358C22 13.4506 22.0437 14.9653 21.9563 16.4865C21.9126 17.2439 21.8179 17.9949 21.5994 18.7266C21.4901 19.1053 21.3736 19.4904 21.1915 19.8498C21.0604 20.1001 20.9002 20.3376 20.7181 20.5623C20.4996 20.8254 20.2155 21.0051 19.8732 21.1207C19.56 21.2234 19.225 21.2747 18.89 21.3004C18.3146 21.3389 17.7319 21.3774 17.1566 21.3902C16.0276 21.4095 14.8987 21.4608 13.7771 21.57C13.4348 21.6021 13.0925 21.6213 12.7501 21.6277C12.0728 21.6406 11.3954 21.6919 10.7254 21.7818C10.0772 21.8652 9.42166 21.9037 8.76616 21.9422C8.54038 21.9551 8.32188 21.9679 8.0961 21.9807C7.3095 22.0257 6.53018 21.9807 5.75815 21.801C5.43769 21.724 5.10994 21.6534 4.79675 21.5507C4.25051 21.3838 3.75524 21.1207 3.34737 20.7548C3.11431 20.543 2.93222 20.2991 2.81569 20.0231C2.65546 19.6508 2.58991 19.2529 2.56806 18.8485C2.53892 18.3928 2.53164 17.9371 2.49522 17.4814C2.45153 16.9101 2.40054 16.3389 2.34956 15.7612C2.27673 14.9461 2.26216 14.1374 2.26216 13.3222C2.26216 12.5392 2.27673 11.7561 2.27673 10.973C2.27673 10.7805 2.24759 10.5879 2.22574 10.3954C2.16019 9.92041 2.08008 9.44544 2.01453 8.97047C1.99268 8.83569 1.99268 8.69448 1.99268 8.55969C1.99268 7.93068 1.99268 7.30167 1.99996 6.67266C2.00724 6.09499 2.10193 5.53017 2.20389 4.95892C2.24759 4.7086 2.30586 4.45186 2.37869 4.20796C2.43696 4.02824 2.51707 3.84852 2.61176 3.68164C2.80841 3.32221 3.11431 3.05263 3.51489 2.87291C3.85721 2.71887 4.22137 2.60976 4.59282 2.5199C5.19005 2.36585 5.79457 2.28883 6.40637 2.23748C7.14927 2.1733 7.88488 2.12837 8.62778 2.0706C9.24686 2.01926 9.86595 2 10.485 2C11.3663 2.00642 12.2476 2.01284 13.1362 2.01926C13.1289 2.02567 13.1289 2.03209 13.1289 2.04493ZM4.5564 14.9846C4.57825 15.4211 4.60739 15.973 4.61467 16.5315C4.62924 17.2824 4.61467 18.0334 4.61467 18.7843C4.61467 18.9512 4.62924 19.1117 4.62924 19.2786C4.62924 19.439 4.71664 19.5481 4.87687 19.6252C5.0808 19.715 5.28474 19.7985 5.50324 19.8562C6.217 20.0424 6.94533 20.1258 7.68823 20.0745C8.43113 20.0231 9.18131 19.9525 9.92421 19.8819C10.485 19.8306 11.0458 19.7471 11.6067 19.7022C12.0582 19.6637 12.5171 19.6637 12.9686 19.6316C13.5149 19.5931 14.0611 19.5481 14.6074 19.5032C15.4887 19.4262 16.3772 19.4262 17.2658 19.4005C17.7611 19.3877 18.2636 19.3427 18.7589 19.3171C18.8973 19.3107 18.9919 19.2529 19.0502 19.1438C19.1085 19.0218 19.174 18.9063 19.2177 18.7843C19.4726 18.1104 19.5965 17.4172 19.6474 16.7112C19.7713 14.8819 19.7057 13.0526 19.4144 11.2362C19.2906 10.4788 19.1667 9.71502 19.0575 8.95764C18.8973 7.77022 18.8244 6.57638 18.839 5.37612C18.839 5.17715 18.8244 4.97818 18.8171 4.77279C18.8099 4.70218 18.8026 4.63158 18.788 4.56098C18.7662 4.47112 18.7079 4.40051 18.6059 4.37484C18.5112 4.34917 18.4166 4.32349 18.3219 4.30424C17.9067 4.2208 17.477 4.16945 17.0473 4.15661C16.1515 4.13094 15.2556 4.10526 14.3598 4.08601C13.2163 4.06033 12.0655 4.03466 10.922 4.0154C10.2301 4.00257 9.5382 4.0154 8.85356 4.06675C8.11067 4.12452 7.36777 4.17587 6.62487 4.21438C6.18787 4.24005 5.75087 4.24005 5.31387 4.27214C5.05167 4.2914 4.78947 4.34917 4.51999 4.38126C4.35975 4.40693 4.27964 4.49037 4.26507 4.62516C4.25051 4.74069 4.22866 4.84981 4.22866 4.96534C4.22137 5.41463 4.22137 5.87035 4.22137 6.31964C4.22137 7.10911 4.23594 7.89859 4.23594 8.69448C4.23594 9.06675 4.25779 9.43261 4.30149 9.79846C4.41802 10.7805 4.50542 11.7625 4.5127 12.751C4.53455 13.457 4.54912 14.163 4.5564 14.9846Z" fill="#767676"/>
<path d="M17.1857 11.846C17.1712 12.1669 16.96 12.4621 16.5594 12.6418C16.3991 12.7189 16.2243 12.751 16.0496 12.7638C15.7218 12.7895 15.4013 12.7959 15.0736 12.828C14.5128 12.8793 13.952 12.9435 13.3839 13.0013C13.26 13.0141 13.2455 13.0334 13.26 13.1489C13.3037 13.5469 13.3474 13.9448 13.3839 14.3492C13.4494 14.9653 13.5077 15.5879 13.5659 16.2041C13.5805 16.3453 13.5732 16.4865 13.5514 16.6277C13.4858 16.9872 13.2746 17.2632 12.8886 17.4172C12.4079 17.6033 11.8616 17.4557 11.5557 17.0642C11.4246 16.8973 11.3518 16.7112 11.33 16.5122C11.2644 15.9795 11.1989 15.4403 11.1479 14.9076C11.0896 14.3684 11.0459 13.8357 10.9949 13.2965C10.9876 13.1874 10.9658 13.1682 10.8347 13.181C10.5069 13.2067 10.1792 13.2388 9.85144 13.2644C9.39988 13.303 8.9556 13.335 8.50403 13.3671C8.2127 13.3864 7.91408 13.38 7.62275 13.3286C7.34598 13.2837 7.09107 13.1938 6.86528 13.0462C6.74147 12.9628 6.6395 12.8665 6.56667 12.751C6.34088 12.4044 6.41372 11.9936 6.75603 11.7368C6.87257 11.647 7.00367 11.5828 7.14933 11.5379C7.34598 11.4737 7.54263 11.4416 7.74656 11.4288C8.59871 11.3581 9.45086 11.294 10.303 11.2234C10.4195 11.2169 10.5361 11.2105 10.6526 11.1977C10.7764 11.1849 10.791 11.172 10.7837 11.0629C10.7546 10.7035 10.7182 10.3504 10.6817 9.99101C10.6162 9.36842 10.6162 8.75224 10.6672 8.12965C10.6817 7.98203 10.7109 7.8344 10.7473 7.68678C10.7691 7.5905 10.8201 7.50064 10.8784 7.4172C11.0532 7.16688 11.3737 7.09628 11.6723 7.22465C11.8252 7.29525 11.949 7.39794 12.0364 7.52631C12.1457 7.68678 12.2477 7.84724 12.3205 8.02054C12.6628 8.80359 12.925 9.6059 12.9978 10.4531C13.0124 10.5943 13.027 10.7356 13.0415 10.8768C13.0561 11.018 13.0707 11.0244 13.2309 11.0051C13.4858 10.973 13.7335 10.9345 13.9884 10.9153C14.5783 10.8703 15.1683 10.8254 15.7582 10.7869C15.9112 10.7805 16.0714 10.7869 16.2243 10.8062C16.7997 10.8896 17.1857 11.2875 17.1857 11.846Z" fill="#767676"/>
</g>
<defs>
<clipPath id="clip0_40347_1989">
<rect width="20" height="20" fill="white" transform="translate(2 2)"/>
</clipPath>
</defs>
</svg>
