<svg width="24" height="24" viewBox="0 0 24 24" fill="none" xmlns="http://www.w3.org/2000/svg">
<path d="M12.7676 22.7754C11.5983 22.8558 10.6397 22.9228 9.67437 22.9831C9.11691 23.0166 8.56625 23.0032 8.01559 22.9161C7.32896 22.8089 6.70352 22.561 6.15286 22.1255C5.77215 21.8239 5.49342 21.442 5.34386 20.9864C5.25548 20.705 5.1875 20.4169 5.13312 20.1287C5.02434 19.519 4.96996 18.9026 4.92917 18.2861C4.88158 17.4687 4.8136 16.6579 4.75921 15.8405C4.71162 15.1704 4.69123 14.4937 4.74561 13.8237C4.77281 13.4283 4.84079 13.0397 4.99715 12.6779C5.06513 12.5238 5.14671 12.3697 5.24189 12.229C5.31667 12.1217 5.41864 12.0279 5.52742 11.9542C5.87413 11.7197 6.30922 11.7934 6.57435 12.115C6.70352 12.2759 6.7715 12.4568 6.82589 12.6511C6.92106 13.0129 6.98905 13.3814 7.00944 13.7566C7.02984 14.1252 7.02984 14.487 7.05023 14.8555C7.09782 15.6328 7.159 16.4033 7.21339 17.1806C7.24738 17.6965 7.26778 18.2191 7.31536 18.7351C7.34936 19.0969 7.40374 19.4587 7.45813 19.8205C7.47172 19.921 7.49892 20.0148 7.52611 20.1086C7.5601 20.2426 7.64168 20.3432 7.75725 20.4169C7.94081 20.5308 8.14475 20.5978 8.3623 20.6313C8.81099 20.705 9.25967 20.6983 9.70836 20.6715C10.5581 20.6179 11.4079 20.5576 12.2577 20.4973C13.3047 20.4303 14.3584 20.4437 15.4053 20.4303C15.8064 20.4236 16.2143 20.4035 16.6154 20.3767C16.9145 20.3566 16.9145 20.3499 16.9961 20.0617C17.1117 19.653 17.1729 19.2376 17.1865 18.8155C17.2137 18.0449 17.2477 17.2811 17.2477 16.5105C17.2409 15.74 17.1865 14.9761 17.1525 14.2123C17.1457 14.085 17.1321 13.9577 17.1253 13.8371C17.1185 13.6494 17.1321 13.4551 17.1933 13.2742C17.336 12.8856 17.6012 12.631 18.0227 12.5707C18.4442 12.5104 18.7773 12.6712 19.0288 12.9995C19.1444 13.1536 19.226 13.3278 19.2599 13.5154C19.3075 13.7432 19.3415 13.9778 19.3687 14.2123C19.4231 14.7349 19.4775 15.2575 19.5183 15.7735C19.5523 16.1755 19.5727 16.5775 19.5795 16.9795C19.5863 17.7836 19.5523 18.5876 19.4843 19.3917C19.4435 19.8607 19.3483 20.3231 19.2192 20.772C19.1308 21.0936 19.0016 21.3951 18.8249 21.6765C18.5393 22.1389 18.1314 22.427 17.6012 22.5476C17.1865 22.6414 16.7718 22.6883 16.3503 22.7017C15.9016 22.7218 15.4529 22.7218 15.0042 22.7285C14.1816 22.762 13.3658 22.7687 12.7676 22.7754Z" fill="#05704A"/>
<path d="M21.9996 11.4182C21.9996 11.9006 21.7072 12.3161 21.2586 12.4769C20.7963 12.6444 20.3 12.5037 19.9737 12.1083C19.8581 11.9676 19.7629 11.8135 19.6814 11.6527C19.3822 11.0296 19.0423 10.4332 18.6684 9.85031C18.4509 9.50188 18.2401 9.15346 17.9886 8.83184C17.5535 8.25561 17.1116 7.68607 16.6425 7.13664C16.2346 6.64751 15.7927 6.19188 15.3644 5.71615C15.0925 5.41463 14.8002 5.13991 14.4739 4.8853C14.1815 4.65748 13.8892 4.43637 13.5901 4.21526C13.3658 4.04775 13.1278 3.90704 12.8627 3.80653C12.4956 3.66582 12.1285 3.53181 11.7546 3.39781C11.6798 3.371 11.5982 3.3509 11.5166 3.3375C11.2855 3.2973 11.0679 3.3375 10.8776 3.47821C10.8232 3.51841 10.762 3.55862 10.7144 3.59882C9.95301 4.20186 9.23919 4.8518 8.60695 5.59554C8.0223 6.28568 7.47164 7.00263 6.93458 7.72627C6.81901 7.88038 6.71023 8.04789 6.60146 8.2087C6.42471 8.46332 6.24795 8.72464 6.0644 8.97925C5.81286 9.32097 5.58172 9.66939 5.39137 10.0513C5.11944 10.5739 4.80671 11.0765 4.43961 11.5388C4.26965 11.7465 4.09289 11.9475 3.87535 12.1083C3.6714 12.2625 3.44026 12.3831 3.18192 12.4233C3.10714 12.4367 3.02556 12.4434 2.95078 12.4434C2.37293 12.4367 1.94464 11.981 2.00582 11.4115C2.01942 11.2507 2.06701 11.0832 2.13499 10.9291C2.23017 10.7214 2.34574 10.5136 2.4749 10.326C2.84881 9.8034 3.18872 9.26737 3.48105 8.69783C3.56943 8.52362 3.6714 8.35611 3.78697 8.1953C4.21526 7.57216 4.63676 6.94903 5.07865 6.33929C5.74488 5.42133 6.4451 4.53018 7.20651 3.67922C7.85235 2.95558 8.57976 2.32574 9.34117 1.7294C9.40915 1.6758 9.48393 1.6289 9.55192 1.57529C10.3677 0.992357 11.2651 0.87175 12.2236 1.12637C12.8899 1.30058 13.5425 1.54849 14.1612 1.85001C14.3243 1.93042 14.4875 2.01752 14.637 2.11803C15.3712 2.60716 16.0715 3.13649 16.7037 3.75293C16.9077 3.95394 17.098 4.16835 17.2952 4.37607C17.6351 4.74459 17.975 5.11311 18.3013 5.48834C18.546 5.76975 18.7908 6.05117 19.0151 6.34599C19.4026 6.84182 19.7901 7.33095 20.1436 7.84688C20.7759 8.77154 21.3333 9.7364 21.816 10.7415C21.9316 10.9626 22.0064 11.1837 21.9996 11.4182Z" fill="#05704A"/>
<path d="M15.1061 14.9024C15.0789 15.9812 14.773 16.9326 14.0728 17.7434C13.2094 18.7485 11.8361 18.9227 10.7824 18.4536C10.0006 18.1052 9.46354 17.529 9.16441 16.7383C9.08963 16.5507 9.01485 16.3631 8.92647 16.1755C8.75652 15.807 8.66134 15.4183 8.65454 15.0096C8.65454 14.487 8.74292 13.9845 8.93327 13.502C9.14402 12.9526 9.50433 12.5305 10.0142 12.229C11.3739 11.4316 12.7675 11.6192 13.862 12.4166C14.705 13.033 15.0993 13.8974 15.1061 14.9024Z" fill="#05704A"/>
<path d="M11.0408 9.43488C11.0612 9.16016 11.0816 8.87875 11.1631 8.61743C11.2175 8.45662 11.2787 8.28911 11.3671 8.1484C11.7274 7.55206 12.4956 7.45826 12.9987 7.94069C13.2978 8.22881 13.4474 8.59063 13.4678 8.99265C13.495 9.46838 13.3522 9.90391 13.0463 10.2791C12.9783 10.3595 12.9171 10.4399 12.8491 10.5203C12.8015 10.5807 12.7539 10.641 12.6928 10.6946C12.2781 11.0832 11.6458 11.0229 11.3127 10.5606C11.2039 10.4064 11.1359 10.2322 11.102 10.0513C11.0816 9.84361 11.068 9.63589 11.0408 9.43488Z" fill="#05704A"/>
<path d="M15.1062 12.0949C14.5147 12.0882 14.1544 11.8135 14.0456 11.3244C13.9165 10.7281 14.0796 10.2121 14.5215 9.79C15.0178 9.32097 15.7996 9.39467 16.1871 9.92401C16.391 10.2054 16.4386 10.5203 16.3503 10.8487C16.2891 11.0765 16.1939 11.2909 16.0647 11.4919C15.8268 11.8738 15.4801 12.0815 15.1062 12.0949Z" fill="#05704A"/>
<path d="M10.1977 10.5471C10.1977 10.7348 10.1297 10.9559 9.98696 11.1502C9.66744 11.5924 9.06919 11.7063 8.61371 11.4048C8.50493 11.3311 8.40296 11.244 8.32138 11.1435C8.08344 10.8487 7.92028 10.5203 7.82511 10.1585C7.79111 10.0178 7.77752 9.87041 7.79791 9.7297C7.8591 9.28747 8.2262 8.97255 8.67489 8.96585C8.83125 8.95915 8.98081 8.99265 9.13038 9.04626C9.74902 9.26067 10.1977 9.87711 10.1977 10.5471Z" fill="#05704A"/>
</svg>
