<svg width="24" height="24" viewBox="0 0 24 24" fill="none" xmlns="http://www.w3.org/2000/svg">
<path d="M21.999 13.5334C21.999 15.0022 21.7836 16.439 21.3467 17.8375C21.002 18.9231 20.3743 19.8044 19.5005 20.4941C19.1805 20.7495 18.8112 20.9283 18.442 21.088C17.322 21.5861 16.1589 21.8862 14.9466 21.982C14.1589 22.0395 13.3774 21.9565 12.6143 21.7713C12.2327 21.6755 11.8573 21.5606 11.482 21.4456C11.2296 21.3626 10.9835 21.3434 10.725 21.3945C10.3619 21.4648 9.99271 21.4775 9.62347 21.4839C9.01424 21.4967 8.41116 21.4584 7.80807 21.4201C7.43269 21.4009 7.0573 21.4009 6.67576 21.4009C5.83267 21.4137 4.98959 21.4264 4.1465 21.3562C3.96189 21.3434 3.77111 21.3243 3.5865 21.286C3.42034 21.254 3.25419 21.2093 3.09419 21.1518C2.50341 20.9283 2.1711 20.4749 2.04187 19.8491C1.96802 19.5043 1.99264 19.1658 2.10956 18.8337C2.26956 18.3612 2.44803 17.895 2.69418 17.4608C2.91572 17.0648 3.05726 16.6434 3.14342 16.19C3.26034 15.5961 3.29111 14.9894 3.33419 14.3827C3.38957 13.5334 3.38957 12.6777 3.39573 11.8283C3.39573 11.3622 3.40803 10.896 3.45727 10.4362C3.52496 9.81038 3.68496 9.2101 3.86958 8.60982C4.18343 7.56253 4.62035 6.56632 5.13113 5.60204C5.75267 4.43979 6.65729 3.58407 7.81423 3.02211C8.6327 2.62618 9.48809 2.31327 10.3804 2.14085C10.6696 2.08337 10.9712 2.05783 11.2666 2.03228C11.4696 2.01313 11.6727 2.01313 11.8758 2.00674C12.5466 1.97481 13.2112 2.05783 13.8574 2.22386C14.5466 2.40267 15.2297 2.60702 15.8697 2.91993C16.6943 3.32863 17.4697 3.82674 18.1651 4.44618C18.2574 4.52919 18.3497 4.61221 18.442 4.68884C19.1743 5.31467 19.7528 6.0746 20.2266 6.92393C20.6205 7.63277 20.9466 8.37354 21.2359 9.13347C21.482 9.77845 21.6359 10.4426 21.759 11.1195C21.9128 11.9178 22.0113 12.716 21.999 13.5334ZM3.51265 19.6767C3.53727 19.7406 3.59881 19.7661 3.65419 19.7789C3.77727 19.8108 3.89419 19.8363 4.01727 19.8555C4.78035 19.9449 5.54344 19.9321 6.30652 19.8938C6.85422 19.8619 7.39576 19.8172 7.94346 19.7853C8.83577 19.7278 9.72194 19.6511 10.6019 19.466C10.9958 19.3829 11.3896 19.4021 11.7773 19.4979C12.0604 19.5681 12.3373 19.6511 12.6204 19.7278C13.3343 19.9321 14.0666 20.0535 14.8112 20.0024C15.9005 19.9257 16.9343 19.6384 17.9189 19.153C18.6697 18.7827 19.1682 18.1632 19.4636 17.3777C19.7097 16.72 19.8574 16.0239 19.9497 15.3215C19.9559 15.2895 19.9497 15.2576 19.9497 15.2129C19.9005 15.2193 19.8697 15.2193 19.8389 15.2257C19.642 15.2704 19.4451 15.3087 19.2543 15.3534C18.6636 15.4939 18.0666 15.6025 17.4574 15.6344C17.2543 15.6472 17.0512 15.6408 16.8482 15.5961C16.6635 15.5514 16.4912 15.4747 16.3435 15.347C15.9743 15.0213 15.9558 14.5168 16.2881 14.1592C16.4297 14.0123 16.5958 13.8974 16.7805 13.8399C16.9958 13.7697 17.2174 13.7058 17.4389 13.6739C17.9866 13.5909 18.5282 13.4823 19.0697 13.361C19.3405 13.2971 19.6174 13.2524 19.8943 13.2013C20.0728 13.1694 20.0789 13.1758 20.0666 12.9842C20.0113 12.0519 19.8451 11.145 19.5866 10.2574C19.5374 10.085 19.4697 9.91256 19.4082 9.74014C19.3713 9.63158 19.3528 9.63158 19.2482 9.67628C19.2359 9.68266 19.2297 9.68905 19.2174 9.68905C18.7251 9.92533 18.2451 10.1872 17.7712 10.4554C17.2728 10.7363 16.7743 11.0109 16.2697 11.2728C16.0974 11.3622 15.9066 11.4196 15.7158 11.4771C15.562 11.5218 15.3958 11.5282 15.2358 11.4963C14.8481 11.4196 14.6081 11.0684 14.6635 10.6597C14.6758 10.5703 14.7004 10.4873 14.7312 10.4043C14.7989 10.2191 14.9097 10.0531 15.0451 9.90617C15.2174 9.72098 15.4143 9.5741 15.6297 9.44638C16.202 9.10793 16.7743 8.76309 17.3528 8.43102C17.6974 8.23305 18.0605 8.06063 18.4112 7.88182C18.5097 7.83074 18.5159 7.81796 18.4605 7.72217C18.4482 7.70302 18.442 7.69025 18.4297 7.67109C18.1282 7.1666 17.7651 6.71319 17.3343 6.32365C17.1928 6.19593 17.0512 6.06821 16.9097 5.94049C16.5097 5.57649 16.0543 5.3019 15.6051 5.01453C15.5312 4.96983 15.5066 4.96983 15.4574 5.03369C15.242 5.28274 15.0266 5.5254 14.8174 5.77446C14.5158 6.13207 14.2266 6.49607 13.8943 6.82175C13.7466 6.96863 13.6174 7.13467 13.4881 7.29432C13.3712 7.44119 13.2666 7.60084 13.1435 7.74133C13.0143 7.88821 12.8666 8.0287 12.7189 8.16281C12.6081 8.2586 12.4727 8.31607 12.3312 8.34161C11.9927 8.39909 11.685 8.19474 11.5989 7.84989C11.562 7.7094 11.562 7.56891 11.5927 7.43481C11.6173 7.32625 11.6481 7.22407 11.6789 7.12189C11.8758 6.528 12.165 5.98519 12.5527 5.50625C12.8666 5.1167 13.1743 4.72077 13.482 4.32484C13.5066 4.29291 13.525 4.26098 13.5497 4.22267C13.5066 4.20351 13.4758 4.19074 13.445 4.18435C12.9897 4.06941 12.5281 3.99916 12.0604 4.01193C11.8327 4.01832 11.6112 4.03109 11.3835 4.04386C11.1127 4.05663 10.8419 4.10134 10.5773 4.15881C9.9004 4.30569 9.26039 4.55474 8.6327 4.84849C7.94346 5.16779 7.39576 5.67228 6.9773 6.31726C6.79883 6.59186 6.65729 6.892 6.51575 7.18575C6.09114 8.04147 5.76498 8.93551 5.51882 9.86147C5.42036 10.2255 5.35267 10.5895 5.34036 10.9662C5.32805 11.2792 5.30959 11.5921 5.31574 11.905C5.31574 12.8693 5.29728 13.8335 5.2419 14.7978C5.19882 15.5003 5.12497 16.19 4.97113 16.8733C4.86036 17.3969 4.65728 17.8759 4.36804 18.3165C4.20189 18.5655 4.04804 18.8274 3.88804 19.0828C3.77111 19.2744 3.65419 19.466 3.53727 19.6575C3.51881 19.6511 3.51881 19.6639 3.51265 19.6767Z" fill="#05704A"/>
</svg>
